<?xml version="1.0" encoding="UTF-8"?>
<svg version="1.1" xmlns="http://www.w3.org/2000/svg" width="4167" height="4167">
<path d="M0 0 C0.93807495 0.14546265 1.8761499 0.29092529 2.84265137 0.4407959 C105.90423276 16.44149913 207.65275689 41.43284081 557 172 C558.04607422 172.49483887 559.09214844 172.98967773 560.16992188 173.49951172 C576.30133306 181.13521597 592.27314836 189.08130685 608.21821594 197.09663391 C612.21249742 199.10430265 616.21054566 201.10425213 620.2109375 203.09971619 C636.1280411 211.04237067 651.86386822 219.25409328 667.31176758 228.07958984 C674.06853867 231.93358306 680.89035948 235.6453824 687.75 239.3125 C699.90150096 245.83702188 711.73584703 252.85674818 723.56347656 259.94726562 C726.98840231 261.99691564 730.42666771 264.02350071 733.8671875 266.046875 C747.81422951 274.25295078 761.61841506 282.65236227 775.29833984 291.29638672 C777.78361411 292.86355135 780.27498003 294.42031617 782.76953125 295.97265625 C795.10007712 303.66655828 807.18108066 311.7253144 819.25050354 319.81959534 C822.46642209 321.97571277 825.68810549 324.12264581 828.91796875 326.2578125 C841.08524636 334.30478302 853.05569266 342.62642558 865 351 C865.78826172 351.55220215 866.57652344 352.1044043 867.38867188 352.67333984 C878.33262752 360.34710294 889.19372758 368.1336358 900 376 C900.77633789 376.56477051 901.55267578 377.12954102 902.35253906 377.71142578 C912.57067731 385.15751048 922.64092739 392.76564949 932.59375 400.5625 C936.20326484 403.38761497 939.84159626 406.17218764 943.49243164 408.94360352 C950.49525392 414.25965555 957.38381535 419.69012304 964.18530273 425.26147461 C968.47595771 428.77403979 972.81136423 432.21971263 977.1875 435.625 C982.89039153 440.07132221 988.42322203 444.69141864 993.921875 449.38671875 C996.7270732 451.77882269 999.57463157 454.11455851 1002.4375 456.4375 C1007.3008243 460.39470275 1012.05950288 464.46293686 1016.80615234 468.55834961 C1020.34310587 471.60295688 1023.92399941 474.57648861 1027.5625 477.5 C1032.92861822 481.85304576 1037.9647483 486.51742917 1043.015625 491.2265625 C1047.56170563 495.46409843 1052.24730026 499.52344176 1057 503.52734375 C1065.92114015 511.0646167 1074.44000293 518.96754609 1082.90380859 527.01269531 C1086.16980523 530.10903967 1089.45855362 533.18075549 1092.75 536.25 C1093.29068115 536.75515137 1093.8313623 537.26030273 1094.38842773 537.78076172 C1097.14176996 540.34968311 1099.90118811 542.91007324 1102.68624878 545.44470215 C1111.52178765 553.4997702 1120.01481366 561.8678415 1128.4609375 570.328125 C1129.90517907 571.77169072 1131.34956886 573.21510817 1132.7940979 574.65838623 C1135.7958334 577.65866032 1138.79578573 580.66070254 1141.79443359 583.6640625 C1145.62038663 587.49573781 1149.45084819 591.32286971 1153.28264427 595.14870071 C1156.25628097 598.11871149 1159.22751674 601.09111504 1162.19804764 604.06423187 C1163.60938973 605.47623628 1165.0214618 606.88751148 1166.4343071 608.29801178 C1179.75332774 621.59975098 1179.75332774 621.59975098 1184.64248657 627.42840576 C1186.18090207 629.20943046 1187.8200856 630.85254316 1189.5 632.5 C1191.85330461 634.81429957 1194.06847675 637.18358037 1196.21875 639.6875 C1200.02988044 644.07130824 1203.99790187 648.2908968 1208 652.5 C1212.58212438 657.31913081 1217.08422576 662.18098226 1221.44140625 667.20507812 C1223.43152515 669.49695691 1225.46279515 671.74995285 1227.5 674 C1234.39779588 681.6513366 1241.11627509 689.44984535 1247.8125 697.27734375 C1249.91232 699.73163705 1252.01652637 702.1820438 1254.125 704.62890625 C1259.40977478 710.76652393 1264.62674695 716.94438273 1269.73046875 723.234375 C1271.78745214 725.74099159 1273.87602108 728.21469915 1275.98144531 730.68041992 C1280.67814252 736.18101922 1285.22142297 741.77183542 1289.65917969 747.4831543 C1293.39305442 752.2717103 1297.24610302 756.95350624 1301.125 761.625 C1305.87610104 767.35725806 1310.46441189 773.15380111 1314.88671875 779.14453125 C1317.07691347 782.1039256 1319.31251199 785.02333642 1321.5625 787.9375 C1342.17150579 814.67540892 1342.17150579 814.67540892 1349.27563477 824.75805664 C1352.75294428 829.68792233 1356.34277807 834.53031712 1359.9375 839.375 C1365.11238249 846.36759803 1370.12754831 853.44424401 1375.01953125 860.63671875 C1379.284808 866.90415444 1383.64309469 873.10760637 1387.99169922 879.31738281 C1393.44654087 887.13381409 1398.73849565 895.05285177 1404 903 C1404.41724335 903.62977753 1404.83448669 904.25955505 1405.26437378 904.90841675 C1416.51384806 921.8961199 1427.62407793 938.95291451 1438.32519531 956.29296875 C1439.94418279 958.90978117 1441.57536637 961.51852814 1443.2109375 964.125 C1451.44781241 977.28293498 1459.30623039 990.65070884 1467.11801147 1004.06340027 C1468.99077091 1007.27710589 1470.87393757 1010.48404077 1472.77734375 1013.6796875 C1480.48354903 1026.61817331 1487.73610943 1039.81004847 1495 1053 C1495.54479004 1053.98758301 1496.08958008 1054.97516602 1496.65087891 1055.99267578 C1503.19980005 1067.87608054 1509.57745352 1079.83976724 1515.8203125 1091.88671875 C1517.61499 1095.3498316 1519.42332555 1098.80520631 1521.24780273 1102.25268555 C1527.24049276 1113.5802144 1533.08698041 1124.97266875 1538.8125 1136.4375 C1539.24475891 1137.30228973 1539.67701782 1138.16707947 1540.12237549 1139.05807495 C1547.7054517 1154.24598881 1554.98719877 1169.53950799 1562 1185 C1562.82879514 1186.81315859 1563.65759969 1188.62631295 1564.48696899 1190.43920898 C1568.37257746 1198.93813461 1572.20348455 1207.46092572 1576 1216 C1576.30488342 1216.6854187 1576.60976685 1217.3708374 1576.92388916 1218.07702637 C1618.41472812 1311.48110283 1652.40686547 1408.43748374 1752.26074219 2050.17919922 C1752.24934892 2056.27856267 1752.25614719 2062.37775142 1752.26761913 2068.47710896 C1752.3353423 2110.98238225 1751.15513304 2153.40598708 1748.1875 2195.8125 C1748.10385193 2197.03564911 1748.02020386 2198.25879822 1747.934021 2199.51901245 C1740.20681481 2312.1004379 1723.63403661 2423.80319072 1559.54345703 2934.70263672 C1557.98868708 2938.02416834 1556.45822493 2941.35594374 1554.93359375 2944.69140625 C1547.55257269 2960.78140033 1539.77658406 2976.65980061 1531.875 2992.5 C1531.37584076 2993.50349487 1530.87668152 2994.50698975 1530.36239624 2995.54089355 C1524.07350698 3008.1701197 1517.56016766 3020.6444785 1510.73852539 3032.99438477 C1507.92683703 3038.09786203 1505.23599328 3043.26060315 1502.5625 3048.4375 C1497.18037376 3058.78694672 1491.45855699 3068.9284002 1485.67480469 3079.05761719 C1483.97383836 3082.04596212 1482.28573158 3085.0412222 1480.6015625 3088.0390625 C1474.97933208 3098.04428461 1469.29453075 3107.99204943 1463.33154297 3117.79785156 C1461.721698 3120.46026476 1460.12827005 3123.13222947 1458.53515625 3125.8046875 C1451.84888312 3137.0125076 1445.08497703 3148.15484965 1438.0703125 3159.16015625 C1435.87271425 3162.61077105 1433.70588142 3166.0788616 1431.5546875 3169.55859375 C1422.03919794 3184.93813164 1412.12373413 3200.01760411 1402 3215 C1401.33967773 3215.97743164 1400.67935547 3216.95486328 1399.99902344 3217.96191406 C1383.97680021 3241.63947213 1367.63876036 3265.08320868 1350.640625 3288.0703125 C1348.24617625 3291.30858036 1345.86089301 3294.55323911 1343.484375 3297.8046875 C1336.61651448 3307.1904109 1329.60644952 3316.44303832 1322.43359375 3325.59765625 C1319.62403277 3329.18707844 1316.85915029 3332.80798192 1314.10717773 3336.44165039 C1308.59851847 3343.71093841 1302.92627482 3350.81317965 1297.09643555 3357.82739258 C1293.427236 3362.24651648 1289.83720754 3366.71496938 1286.3125 3371.25 C1281.49628199 3377.43476083 1276.48109746 3383.42821878 1271.38378906 3389.38232422 C1269.03938369 3392.12297877 1266.70646415 3394.87333483 1264.375 3397.625 C1263.68881592 3398.43396729 1263.68881592 3398.43396729 1262.98876953 3399.25927734 C1260.07560526 3402.70229749 1257.21414886 3406.18292563 1254.375 3409.6875 C1250.75165505 3414.13903808 1246.98036128 3418.42382455 1243.1171875 3422.66796875 C1241.21948831 3424.75823889 1239.35266585 3426.86986115 1237.5 3429 C1234.10746907 3432.89512811 1230.64805799 3436.72782763 1227.1875 3440.5625 C1225.27445851 3442.69417481 1223.38112388 3444.8401911 1221.5 3447 C1210.07063364 3460.10707151 1198.20561278 3472.83252932 1186.3145752 3485.51992798 C1184.56435625 3487.39529114 1182.82063758 3489.27592391 1181.08073425 3491.16081238 C1172.48158342 3500.45514035 1163.6558034 3509.4923729 1154.6953125 3518.4375 C1153.27702574 3519.85646308 1151.85888721 3521.27557434 1150.44088745 3522.69482422 C1147.49964286 3525.63752701 1144.55663852 3528.57845467 1141.61230469 3531.51806641 C1137.85690946 3535.26772836 1134.10607339 3539.02191399 1130.35652351 3542.77742004 C1127.44141798 3545.69615089 1124.5239206 3548.61248157 1121.60570908 3551.52810669 C1120.22161574 3552.91153812 1118.83825046 3554.29569839 1117.45566177 3555.68063354 C1110.80889838 3562.33621626 1104.18884038 3568.92385883 1097 3575 C1095.64279042 3576.24355957 1094.29263067 3577.49497788 1092.95703125 3578.76171875 C1091.94491577 3579.71872681 1091.94491577 3579.71872681 1090.91235352 3580.69506836 C1090.21940186 3581.3525708 1089.5264502 3582.01007324 1088.8125 3582.6875 C1076.41570002 3594.40048831 1063.92105225 3606.00152971 1051.05078125 3617.1953125 C1048.73911203 3619.22958141 1046.4646857 3621.3022231 1044.1875 3623.375 C1039.81714316 3627.32371445 1035.29696921 3631.0462721 1030.71875 3634.75 C1028.07852271 3636.93501569 1025.5327028 3639.19171391 1023 3641.5 C1018.78120377 3645.34069657 1014.42281705 3648.95910346 1009.98828125 3652.546875 C1006.59249947 3655.33452331 1003.26321877 3658.19203996 999.9375 3661.0625 C995.27711577 3665.07765798 990.56951839 3669.00592973 985.7421875 3672.8203125 C982.91515689 3675.0674394 980.11437417 3677.34438253 977.31616211 3679.62719727 C965.07807404 3689.60941657 952.64214095 3699.30975726 940.08203125 3708.8828125 C937.61406004 3710.7645333 935.15137216 3712.65240177 932.69921875 3714.5546875 C924.06788529 3721.24479349 915.28560929 3727.71804209 906.48046875 3734.17675781 C904.03494258 3735.97431583 901.59471989 3737.77882185 899.15625 3739.5859375 C889.62123462 3746.64826387 880.02116297 3753.60094051 870.29345703 3760.39550781 C867.8881681 3762.07823709 865.4889849 3763.76945669 863.08984375 3765.4609375 C845.9385379 3777.5128209 828.48379133 3789.10826387 811.00305176 3800.67462158 C809.18744439 3801.87597188 807.37247957 3803.07828648 805.55761719 3804.28076172 C791.57001664 3813.53378897 777.36082763 3822.38977112 763.04833984 3831.13037109 C760.25951013 3832.84083545 757.48063279 3834.56576459 754.70703125 3836.30078125 C733.81899626 3849.36540797 712.51107327 3861.70320461 690.9765625 3873.66796875 C687.04086383 3875.85538999 683.11953903 3878.06530521 679.2109375 3880.30078125 C666.44546872 3887.5979787 653.51683578 3894.50006135 640.43774414 3901.2175293 C637.9302975 3902.51764065 635.43024139 3903.82794006 632.93530273 3905.15161133 C619.24717983 3912.41163205 605.4230452 3919.38816625 591.5625 3926.3125 C590.669597 3926.75886181 590.669597 3926.75886181 589.75865555 3927.21424103 C571.96864021 3936.10699177 554.14882975 3944.85873438 536 3953 C533.64954348 3954.06467135 531.29929106 3955.12979335 528.94921875 3956.1953125 C521.64840461 3959.49877512 514.32830018 3962.75799605 507 3966 C505.81245117 3966.52561523 504.62490234 3967.05123047 503.40136719 3967.59277344 C459.97963224 3986.751155 415.68757354 4004.02870762 371 4020 C369.86162689 4020.40738403 369.86162689 4020.40738403 368.70025635 4020.82299805 C271.67334327 4055.51105835 171.94601028 4083.08494631 -286.25 4140.5625 C-287.32427246 4140.58334656 -288.39854492 4140.60419312 -289.50537109 4140.62567139 C-309.67348227 4141.01029569 -329.82906913 4141.20599812 -350 4141 C-350.88725769 4140.99139954 -351.77451538 4140.98279907 -352.68865967 4140.97393799 C-452.24505134 4139.96756815 -551.93347773 4132.22048934 -1202.83360291 3950.46925354 C-1206.08528722 3948.96042551 -1209.34006535 3947.45840826 -1212.5949707 3945.95654297 C-1229.43025041 3938.16674702 -1246.10995907 3930.10546775 -1262.68945312 3921.78564453 C-1265.88381512 3920.1827227 -1269.08180661 3918.58719195 -1272.28075314 3916.99344349 C-1286.92462588 3909.69358822 -1301.41892734 3902.17552849 -1315.73272705 3894.24298096 C-1319.27556689 3892.30069939 -1322.85527866 3890.43079656 -1326.4375 3888.5625 C-1336.00155799 3883.52797622 -1345.38974687 3878.18894105 -1354.77832031 3872.8359375 C-1357.58624541 3871.23578619 -1360.39625042 3869.63935788 -1363.20713806 3868.04441833 C-1377.58533777 3859.8835594 -1391.89095489 3851.62032351 -1406 3843 C-1407.51956299 3842.071875 -1407.51956299 3842.071875 -1409.06982422 3841.125 C-1447.17922811 3817.81663531 -1484.68431415 3793.56185307 -1521.265625 3767.9140625 C-1523.9123223 3766.06137439 -1526.56451967 3764.21687499 -1529.21875 3762.375 C-1538.23879716 3756.10649294 -1547.16433471 3749.73072443 -1555.98608398 3743.18579102 C-1560.63621125 3739.73582148 -1565.31213062 3736.32705901 -1570.01928711 3732.95532227 C-1577.30088052 3727.7389013 -1584.43224005 3722.38859153 -1591.44140625 3716.8125 C-1595.41884356 3713.65298986 -1599.45870336 3710.57712713 -1603.5 3707.5 C-1614.73136346 3698.93051362 -1625.8016622 3690.20931022 -1636.67919922 3681.19384766 C-1641.10570889 3677.53298285 -1645.58387408 3673.95475435 -1650.125 3670.4375 C-1655.78628821 3666.04339748 -1661.21257293 3661.41738741 -1666.60375977 3656.69726562 C-1670.20667237 3653.5447758 -1673.84321175 3650.45328652 -1677.5625 3647.4375 C-1687.14838872 3639.66053827 -1696.45278379 3631.57531282 -1705.55078125 3623.234375 C-1708.32229524 3620.70597628 -1711.14127003 3618.23816 -1713.97265625 3615.77734375 C-1717.20678291 3612.9420304 -1720.39022765 3610.05073236 -1723.58203125 3607.16796875 C-1725.5990169 3605.35952443 -1727.63491596 3603.5801266 -1729.6875 3601.8125 C-1734.96470438 3597.21622522 -1740.03430097 3592.39324738 -1745.140625 3587.609375 C-1748.00867346 3584.92324438 -1750.8877729 3582.24982093 -1753.77928066 3579.58897305 C-1767.04805503 3567.37440893 -1780.13705036 3555.01888708 -1792.87890625 3542.25390625 C-1794.22917955 3540.90430967 -1795.57960098 3539.55486129 -1796.93016052 3538.20555115 C-1799.7256505 3535.41151684 -1802.51937148 3532.61572978 -1805.31176758 3529.81860352 C-1808.87194788 3526.25268248 -1812.43666152 3522.6913321 -1816.0026865 3519.13125706 C-1818.77815709 3516.3594124 -1821.55122659 3513.58517541 -1824.32359123 3510.81022453 C-1825.63724577 3509.49590865 -1826.9516276 3508.18231922 -1828.26678658 3506.86950874 C-1834.72833659 3500.41698616 -1841.09324565 3493.97201186 -1847 3487 C-1848.22031844 3485.66642153 -1849.44824863 3484.33965765 -1850.69140625 3483.02734375 C-1851.31926025 3482.36275146 -1851.94711426 3481.69815918 -1852.59399414 3481.01342773 C-1853.56840454 3479.98584351 -1853.56840454 3479.98584351 -1854.5625 3478.9375 C-1855.96897379 3477.44812797 -1857.37521919 3475.95854023 -1858.78125 3474.46875 C-1859.48378906 3473.72496094 -1860.18632813 3472.98117188 -1860.91015625 3472.21484375 C-1876.52653696 3455.66439915 -1876.52653696 3455.66439915 -1882.36328125 3448.88671875 C-1884.37873772 3446.56341213 -1886.43848462 3444.28251535 -1888.5 3442 C-1895.39779588 3434.3486634 -1902.11627509 3426.55015465 -1908.8125 3418.72265625 C-1910.91232 3416.26836295 -1913.01652637 3413.8179562 -1915.125 3411.37109375 C-1920.40977478 3405.23347607 -1925.62674695 3399.05561727 -1930.73046875 3392.765625 C-1932.78745214 3390.25900841 -1934.87602108 3387.78530085 -1936.98144531 3385.31958008 C-1941.68120495 3379.81539417 -1946.22681233 3374.2204886 -1950.66796875 3368.50585938 C-1954.31737928 3363.82620795 -1958.08200734 3359.25117211 -1961.875 3354.6875 C-1968.25674408 3346.98971704 -1974.35893863 3339.1059369 -1980.38671875 3331.12939453 C-1982.55400259 3328.26876354 -1984.73882776 3325.42175854 -1986.92358398 3322.57446289 C-1997.62337377 3308.62313562 -2008.11387852 3294.53953512 -2018.37207031 3280.26025391 C-2019.95802683 3278.05827648 -2021.5516892 3275.86212974 -2023.1484375 3273.66796875 C-2039.54094941 3251.12699296 -2055.06714858 3228.03052489 -2070.47540283 3204.81109619 C-2072.89679543 3201.16234525 -2075.32151183 3197.51600902 -2077.76000977 3193.87866211 C-2082.69521207 3186.51473231 -2087.51974094 3179.10025582 -2092.1875 3171.5625 C-2093.48546664 3169.47382754 -2094.78364981 3167.38528963 -2096.08203125 3165.296875 C-2096.73252441 3164.24951172 -2097.38301758 3163.20214844 -2098.05322266 3162.12304688 C-2099.92411348 3159.12173819 -2101.80871222 3156.1296079 -2103.69921875 3153.140625 C-2113.13086454 3138.20582656 -2122.11985985 3123.04151936 -2130.97723389 3107.7623291 C-2132.59661106 3104.97197901 -2134.22284393 3102.18562522 -2135.84765625 3099.3984375 C-2157.07042823 3062.90237355 -2176.8487928 3025.61791038 -2196 2988 C-2196.31322205 2987.38558044 -2196.62644409 2986.77116089 -2196.94915771 2986.13812256 C-2205.39933634 2969.55901932 -2213.40188068 2952.80062282 -2221.13995361 2935.8782959 C-2222.01541057 2933.96634414 -2222.89375532 2932.05574382 -2223.77294922 2930.14550781 C-2264.92279961 2840.71308292 -2300.09583405 2748.51783346 -2363 2521 C-2363.31520599 2519.62763184 -2363.31520599 2519.62763184 -2363.63677979 2518.22753906 C-2387.56848279 2413.79155853 -2402.20606095 2307.31676448 -2414.26074219 2064.34326172 C-2414.24934903 2058.64088643 -2414.25615417 2052.93869805 -2414.26761913 2047.23632908 C-2414.33981437 2004.80137519 -2413.17282793 1962.39838676 -2410.1875 1920.0625 C-2410.06202789 1918.23526901 -2410.06202789 1918.23526901 -2409.934021 1916.37112427 C-2402.36175408 1806.39903735 -2386.78516496 1696.89108183 -2211.91015625 1159.91601562 C-2211.06021773 1158.12676737 -2210.21169538 1156.33684658 -2209.36328125 1154.546875 C-2198.86835581 1132.42389592 -2188.20308433 1110.34128945 -2176.34545898 1088.91113281 C-2172.8076823 1082.51594395 -2169.41311736 1076.05746713 -2166.0625 1069.5625 C-2160.5127717 1058.84093967 -2154.6212702 1048.33598635 -2148.62792969 1037.85742188 C-2147.02378153 1035.04174251 -2145.43494644 1032.21802586 -2143.8515625 1029.390625 C-2131.08935361 1006.61678555 -2117.66733499 984.24764368 -2103.89990234 962.06884766 C-2102.13782224 959.22261957 -2100.38927793 956.36859272 -2098.64453125 953.51171875 C-2086.96681457 934.49425662 -2074.44233714 916.0277998 -2062.01318359 897.49731445 C-2059.54454207 893.81585116 -2057.08829354 890.12643831 -2054.63671875 886.43359375 C-2050.91247077 880.84304386 -2047.09520142 875.32036232 -2043.25 869.8125 C-2042.55535645 868.81637695 -2041.86071289 867.82025391 -2041.14501953 866.79394531 C-2039.09844818 863.86138991 -2037.04953929 860.93048162 -2035 858 C-2034.44731445 857.20835449 -2033.89462891 856.41670898 -2033.32519531 855.60107422 C-2025.97540976 845.08102198 -2018.42340118 834.72157297 -2010.78222656 824.41162109 C-2009.01142769 822.01546339 -2007.25028828 819.61251756 -2005.4921875 817.20703125 C-1998.02379186 806.99876316 -1990.36779731 796.96036361 -1982.56494141 787.00585938 C-1980.33348357 784.14569438 -1978.13677176 781.25998977 -1975.9375 778.375 C-1971.68935296 772.83848049 -1967.30771347 767.42034473 -1962.89086914 762.01782227 C-1959.33041449 757.65743014 -1955.83244683 753.25485565 -1952.375 748.8125 C-1947.92861674 743.10965281 -1943.30858411 737.57678119 -1938.61328125 732.078125 C-1936.22117731 729.2729268 -1933.88544149 726.42536843 -1931.5625 723.5625 C-1927.60529725 718.6991757 -1923.53706314 713.94049712 -1919.44165039 709.19384766 C-1916.39704312 705.65689413 -1913.42351139 702.07600059 -1910.5 698.4375 C-1906.15097244 693.07633512 -1901.49200516 688.04429261 -1896.78515625 683 C-1894.02653661 680.04123978 -1891.35388674 677.01604915 -1888.70703125 673.95703125 C-1885.90398039 670.74346493 -1883.03340408 667.59077863 -1880.17578125 664.42578125 C-1878.32556437 662.36297212 -1876.50055191 660.2828763 -1874.6875 658.1875 C-1866.63808909 648.959228 -1858.1710887 640.08755848 -1849.77929688 631.171875 C-1847.0003007 628.21589248 -1844.23110953 625.25341343 -1841.49713135 622.25558472 C-1833.66689128 613.67050471 -1825.55069631 605.40342246 -1817.328125 597.1953125 C-1815.95182009 595.8183316 -1814.57566345 594.44120248 -1813.199646 593.06393433 C-1810.34060671 590.20343445 -1807.4798018 587.34471598 -1804.61767578 584.48730469 C-1800.96760203 580.84295446 -1797.32207445 577.19409466 -1793.677845 573.54390144 C-1790.84680415 570.70923353 -1788.01336934 567.87696814 -1785.17922211 565.04540634 C-1783.83420397 563.70105014 -1782.48991396 562.35596502 -1781.14640045 561.01010513 C-1768.48405174 548.3304741 -1768.48405174 548.3304741 -1762.59466553 543.38058472 C-1760.80718375 541.83306896 -1759.15502923 540.18768723 -1757.5 538.5 C-1755.18318295 536.1441245 -1752.81102931 533.92642832 -1750.3046875 531.7734375 C-1745.96817451 528.00316345 -1741.79119501 524.08152719 -1737.625 520.125 C-1729.57557121 512.51582212 -1721.40909901 505.07424643 -1713.05078125 497.8046875 C-1710.73911203 495.77041859 -1708.4646857 493.6977769 -1706.1875 491.625 C-1701.81714316 487.67628555 -1697.29696921 483.9537279 -1692.71875 480.25 C-1690.07852271 478.06498431 -1687.5327028 475.80828609 -1685 473.5 C-1680.77635723 469.65489125 -1676.4130207 466.03241829 -1671.97265625 462.44140625 C-1668.66248778 459.72280534 -1665.4250092 456.92919828 -1662.1875 454.125 C-1656.36088236 449.09142975 -1650.37391608 444.304239 -1644.296875 439.578125 C-1641.34891691 437.28300192 -1638.44807171 434.93584004 -1635.5625 432.5625 C-1624.66980875 423.61719396 -1613.64074523 414.92122981 -1602.33642578 406.49975586 C-1597.48144908 402.87823827 -1592.67668107 399.20904268 -1587.9375 395.4375 C-1579.47114051 388.71778919 -1570.7370642 382.36128876 -1562 376 C-1561.23075195 375.43990234 -1560.46150391 374.87980469 -1559.66894531 374.30273438 C-1549.61846546 366.99563625 -1539.51047168 359.77151381 -1529.3359375 352.63818359 C-1527.72301172 351.50704522 -1526.11109466 350.37446759 -1524.5 349.24072266 C-1507.85805468 337.53625925 -1490.97709029 326.21032195 -1474 315 C-1472.9471582 314.30455078 -1471.89431641 313.60910156 -1470.80957031 312.89257812 C-1457.28579763 303.97687303 -1443.61873135 295.30678098 -1429.85205078 286.77148438 C-1427.17686287 285.10985422 -1424.50745644 283.43938083 -1421.83984375 281.765625 C-1400.25138152 268.25554773 -1378.16917308 255.529342 -1356 243 C-1355.0423877 242.45811035 -1354.08477539 241.9162207 -1353.09814453 241.35791016 C-1302.62877125 212.83527674 -1250.89794039 185.75157351 -1198 162 C-1196.62478965 161.38031392 -1195.24962926 160.76051699 -1193.87451172 160.140625 C-1173.06326506 150.76901446 -1152.15184486 141.64007564 -1131.08117676 132.86669922 C-1129.69862606 132.29094052 -1128.31638063 131.71444822 -1126.93444824 131.13720703 C-1032.29093769 91.61070755 -934.21456616 59.55184565 -427 -24 C-426.29403687 -24.0352478 -425.58807373 -24.07049561 -424.86071777 -24.10681152 C-416.57579095 -24.51813489 -408.29244761 -24.79637252 -400 -25 C-399.17918945 -25.02084656 -398.35837891 -25.04169312 -397.51269531 -25.06317139 C-295.22494389 -27.65653028 -193.19919648 -24.00061949 0 0 Z " fill="#44A748" transform="translate(2415,26)"/>
<path d="M0 0 C41.1675 -0.061875 82.335 -0.12375 124.75 -0.1875 C137.6828418 -0.21481201 150.61568359 -0.24212402 163.94042969 -0.27026367 C179.90087891 -0.28381348 179.90087891 -0.28381348 187.40509033 -0.28633118 C192.57520913 -0.28909288 197.74525456 -0.30000541 202.91534424 -0.31672668 C241.04766516 -0.43606812 278.36474083 0.24447717 316 7 C316.96131836 7.16161621 317.92263672 7.32323242 318.91308594 7.48974609 C363.91349204 15.12659313 410.18929234 35.55360592 443.24609375 67.36328125 C445.50288965 69.52404328 447.79357465 71.55883683 450.1875 73.5625 C492.34769803 110.36483953 513.03321726 168.84858955 524 222 C524.18208008 222.88059082 524.36416016 223.76118164 524.55175781 224.66845703 C526.97023793 236.58095183 528.68920916 248.56721923 530.1875 260.625 C530.3146489 261.6254837 530.3146489 261.6254837 530.44436646 262.6461792 C533.12471835 283.9426203 533.15587296 305.28172191 533.17129052 326.71425498 C533.17524217 330.67825958 533.18487548 334.6422511 533.19384766 338.60624695 C533.20868076 345.45611612 533.22027222 352.3059843 533.22979546 359.15586281 C533.24377643 369.08430394 533.26497859 379.01272053 533.28822399 388.94114383 C533.32601711 405.08811682 533.36100852 421.23509421 533.39282227 437.38208008 C533.39472276 438.34565855 533.39662325 439.30923703 533.39858133 440.30201485 C533.42540443 453.97121562 533.44929064 467.64041995 533.47196633 481.30962815 C533.47356363 482.27229705 533.47516094 483.23496595 533.47680664 484.22680664 C533.47840011 485.18828245 533.47999357 486.14975825 533.48163532 487.14036969 C533.50849519 503.22911889 533.54292646 519.31784151 533.58346039 535.40656203 C533.60808279 545.2978075 533.62649389 555.18902458 533.636616 565.0802957 C533.64406355 571.86802634 533.65867361 578.65571866 533.67868023 585.44342379 C533.68995405 589.34506508 533.69821338 593.24664494 533.69767189 597.14830399 C533.29521825 647.20485729 533.29521825 647.20485729 556.625 690.1875 C586.61952434 718.28581878 635.6811659 712.27362332 672 713 C672 819.26 672 925.52 672 1035 C642.795 1035.495 642.795 1035.495 613 1036 C588.5981637 1039.85292152 565.87833593 1044.74575842 550.4609375 1065.2578125 C533.12177034 1089.93319087 533.69325529 1119.60862431 533.71264386 1148.49557602 C533.71306869 1152.44610598 533.70191464 1156.39660654 533.69218445 1160.34712219 C533.67682121 1167.17680832 533.66833963 1174.00647403 533.66447449 1180.83617592 C533.65868345 1190.74308588 533.64002604 1200.64994157 533.61803395 1210.55682733 C533.5824084 1226.67858234 533.55406031 1242.80034044 533.53173828 1258.92211914 C533.52973579 1260.36558085 533.52973579 1260.36558085 533.52769285 1261.83820339 C533.51827223 1268.66296868 533.50911094 1275.4877343 533.5 1282.3125 C533.48960996 1290.08959988 533.47908826 1297.86669955 533.46826172 1305.64379883 C533.46693098 1306.60157954 533.46560023 1307.55936024 533.46422917 1308.54616461 C533.44168473 1324.59988273 533.41143619 1340.65357782 533.37586927 1356.70727223 C533.35438513 1366.57002839 533.3396349 1376.43274872 533.33403051 1386.29552694 C533.32973534 1393.07350264 533.31837455 1399.85144425 533.30180657 1406.62940095 C533.2925405 1410.51975371 533.28623376 1414.41004299 533.28886986 1418.30040741 C533.30286654 1443.90576707 532.19367698 1469.36671361 529.1875 1494.8125 C529.10418427 1495.53194794 529.02086853 1496.25139587 528.93502808 1496.99264526 C526.62686046 1516.72994359 522.72349656 1535.96753161 517 1555 C516.52626953 1556.62808594 516.52626953 1556.62808594 516.04296875 1558.2890625 C506.96197343 1588.81666379 494.71412642 1618.05266721 476 1644 C475.60103516 1644.55445801 475.20207031 1645.10891602 474.79101562 1645.68017578 C469.27146059 1653.26845294 463.21339312 1660.22028983 456.76171875 1667.02734375 C454.87725443 1669.02236858 453.09157388 1671.06539926 451.3515625 1673.1875 C448.22058172 1676.93219462 444.74241983 1679.88131681 441 1683 C440.18160645 1683.69488525 440.18160645 1683.69488525 439.34667969 1684.40380859 C429.41138632 1692.82512716 419.17303317 1700.30443125 408 1707 C406.86401367 1707.68425049 406.86401367 1707.68425049 405.70507812 1708.38232422 C392.07436053 1716.48868562 377.81613227 1722.41520513 363 1728 C362.28779297 1728.27714844 361.57558594 1728.55429688 360.84179688 1728.83984375 C331.96427814 1739.99772386 300.65600531 1744.49293332 270 1747 C268.89853134 1747.09063437 267.79706268 1747.18126875 266.66221619 1747.27464962 C254.06683008 1748.18422211 241.48988984 1748.13354612 228.8671875 1748.11352539 C226.32211305 1748.11321854 223.77703852 1748.11335342 221.23196411 1748.11389065 C215.14230127 1748.11409239 209.0526565 1748.10984009 202.96299756 1748.10338932 C195.90632092 1748.09614052 188.84964937 1748.09539191 181.79296875 1748.09460449 C163.19531016 1748.08937121 144.59765485 1748.07540996 126 1748.0625 C84.42 1748.041875 42.84 1748.02125 0 1748 C0 1635.8 0 1523.6 0 1408 C50.82 1407.67 101.64 1407.34 154 1407 C165.66187582 1404.71627112 165.66187582 1404.71627112 173.171875 1397.28515625 C178.38355037 1388.05142706 178.29327644 1377.23153575 178.25828552 1366.92045593 C178.26196123 1365.64590524 178.26563693 1364.37135455 178.26942402 1363.05818111 C178.27932942 1359.54942548 178.27705174 1356.04077072 178.27269709 1352.53200781 C178.27020641 1348.73539746 178.27930837 1344.93881266 178.28707886 1341.14221191 C178.29909485 1334.56720722 178.30423034 1327.9922267 178.30496025 1321.41721153 C178.30629167 1311.87833169 178.32145624 1302.33950994 178.34045542 1292.80065069 C178.37127261 1277.27897291 178.39544335 1261.75729365 178.41333008 1246.2355957 C178.41440276 1245.30764188 178.41547544 1244.37968806 178.41658062 1243.42361442 C178.42837344 1233.09600954 178.43858154 1222.76840406 178.44702148 1212.4407959 C178.45009496 1208.70768228 178.45318387 1204.97456867 178.45629883 1201.24145508 C178.45706417 1200.32040352 178.45782951 1199.39935197 178.45861804 1198.45038977 C178.47177066 1183.00712293 178.49651216 1167.56389786 178.53004223 1152.12066203 C178.55016803 1142.62693249 178.56064458 1133.13329276 178.55805302 1123.63954172 C178.55700556 1117.1086335 178.56684984 1110.57779556 178.58469205 1104.04691192 C178.59458297 1100.29835142 178.60003682 1096.54994664 178.59192467 1092.80137825 C178.54367639 1068.09869162 179.33085133 1043.05460917 185.1875 1018.9375 C185.49010742 1017.65496338 185.79271484 1016.37242676 186.10449219 1015.05102539 C195.89315496 974.55949236 219.63576122 932.75687538 252 906 C252.79792969 905.27941406 253.59585938 904.55882813 254.41796875 903.81640625 C266.26084243 893.37663749 288.53643387 875 305 875 C305 874.34 305 873.68 305 873 C303.99259766 872.86271484 303.99259766 872.86271484 302.96484375 872.72265625 C299.21830818 871.80946906 295.97176332 870.18805807 292.5625 868.4375 C291.86020264 868.07962402 291.15790527 867.72174805 290.43432617 867.35302734 C288.28309198 866.24725955 286.14000048 865.12733949 284 864 C283.37287109 863.6704834 282.74574219 863.3409668 282.09960938 863.00146484 C269.80191958 856.46290443 259.35617008 848.37778917 249.140625 838.953125 C247.40658742 837.37097392 245.65300618 835.89053119 243.8125 834.4375 C240.13303381 831.24862931 237.10432745 827.74362309 234 824 C233.56381348 823.48147461 233.12762695 822.96294922 232.67822266 822.42871094 C224.87257508 813.11698894 218.14187043 803.47805638 212 793 C211.41822998 792.01580078 211.41822998 792.01580078 210.82470703 791.01171875 C208.11079556 786.39636238 205.51104526 781.72871172 203 777 C202.66258789 776.36610352 202.32517578 775.73220703 201.97753906 775.07910156 C182.42871755 737.67886841 178.49111993 696.60360759 178.62589633 655.08537757 C178.63494167 651.23345753 178.62619076 647.38156737 178.61968994 643.52964783 C178.61063179 636.8883201 178.61178528 630.24706184 178.61987495 623.60573387 C178.63122095 613.9877431 178.62196662 604.36984895 178.60731315 594.7518665 C178.58366717 579.11705003 178.57019469 563.48224561 178.56616211 547.84741211 C178.56591724 546.91616531 178.56567237 545.98491851 178.56542008 545.02545211 C178.56287048 534.62050381 178.56230991 524.21555644 178.56335449 513.81060791 C178.56368763 510.0263265 178.56397298 506.24204509 178.56420898 502.45776367 C178.56427177 501.52373638 178.56433456 500.5897091 178.56439925 499.62737795 C178.56500503 484.02657156 178.55009305 468.42582092 178.52337593 452.82503778 C178.50763235 443.23413186 178.50524772 433.64340669 178.52050995 424.05249903 C178.53000545 417.4863447 178.52517269 410.92029915 178.50929613 404.35415753 C178.50064318 400.5748807 178.49836181 396.79589363 178.51382256 393.01663208 C179.31841517 368.99588063 179.31841517 368.99588063 171 347 C169.24794883 345.65154447 169.24794883 345.65154447 167.25 344.8125 C166.29867187 344.35810547 166.29867187 344.35810547 165.328125 343.89453125 C113.87109031 324.12328806 55.12353051 340.35335596 0 340 C0 227.8 0 115.6 0 0 Z " fill="#FEFEFE" transform="translate(2698,1219)"/>
<path d="M0 0 C7.18501101 0.02951204 14.36994619 0.0320436 21.55502143 0.03517225 C40.42383294 0.05596944 59.29259274 0.11181373 78.16134467 0.16359022 C141.55228217 0.28734022 141.55228217 0.28734022 206.22384467 0.41359022 C206.22384467 112.61359022 206.22384467 224.81359022 206.22384467 340.41359022 C154.41384467 340.74359022 102.60384467 341.07359022 49.22384467 341.41359022 C38.66848952 344.35887646 38.66848952 344.35887646 32.59884467 351.97609022 C28.84151154 361.36942305 27.78442896 370.39494514 27.8385755 380.44375685 C27.83333981 381.7008609 27.82810411 382.95796495 27.82270976 384.25316307 C27.80868023 387.70848761 27.81295043 391.16357446 27.82042291 394.61891022 C27.82519296 398.35956025 27.81257137 402.10015786 27.80206122 405.84079054 C27.78612914 412.31648338 27.78080627 418.79211375 27.7825891 425.26782492 C27.78498341 434.65982404 27.76891709 444.05172434 27.74813655 453.44369753 C27.71464416 468.72312392 27.69296456 484.00254143 27.6801435 499.28199843 C27.67898926 500.65183169 27.67898926 500.65183169 27.67781171 502.04933836 C27.67471048 505.74786166 27.67162766 509.44638498 27.66857167 513.14490831 C27.66006265 523.29314631 27.64915463 533.44138116 27.63717475 543.58961561 C27.63610673 544.49716567 27.63503871 545.40471574 27.63393833 546.33976731 C27.61575852 561.54686816 27.58971338 576.75394823 27.55904361 591.96102878 C27.54062608 601.31125343 27.52958239 610.66143113 27.52852169 620.01167419 C27.52740646 626.43974687 27.51934021 632.86778756 27.50613804 639.29584668 C27.49882113 642.98730709 27.49453576 646.67869745 27.49925628 650.37016371 C27.52676096 674.50801478 27.05743274 698.6876427 22.22384467 722.41359022 C22.09284369 723.09469862 21.96184272 723.77580702 21.82687201 724.47755507 C18.39084331 742.11472782 11.61956583 758.70794783 3.21505561 774.53712538 C2.22179517 776.41747014 1.2558978 778.30992833 0.29415717 780.20655897 C-8.23059114 796.84131487 -19.00922965 812.46230957 -31.73318658 826.15968397 C-33.14685655 827.71931604 -34.50111767 829.3341108 -35.80349908 830.98780897 C-37.59481261 833.19059254 -39.36642849 834.95906955 -41.52615533 836.78859022 C-44.5665808 839.37485936 -44.5665808 839.37485936 -47.54568658 842.03077772 C-59.03314896 852.4921269 -82.5421871 873.41359022 -98.77615533 873.41359022 C-98.77615533 874.07359022 -98.77615533 874.73359022 -98.77615533 875.41359022 C-97.55928033 875.76421522 -96.34240533 876.11484022 -95.08865533 876.47609022 C-81.14119876 881.13983944 -68.65390336 890.11387484 -57.02615533 898.91359022 C-55.96219537 899.71433973 -55.96219537 899.71433973 -54.87674127 900.531266 C-50.7443405 903.70460139 -46.9896784 907.04331449 -43.38357721 910.80568007 C-41.68284855 912.50692535 -39.89045001 914.01990048 -38.02615533 915.53859022 C3.21151544 951.28321219 22.91140299 1010.95105932 27.22384467 1063.41359022 C27.79422017 1073.52236532 27.75247687 1083.64025019 27.69935491 1093.7609525 C27.68375128 1097.62303917 27.69211241 1101.48509479 27.69738593 1105.34719923 C27.70357994 1112.00159982 27.6960712 1118.65586233 27.67913451 1125.31024244 C27.65507237 1134.94702151 27.65839094 1144.58365638 27.66876295 1154.22045311 C27.68536735 1169.88689327 27.68808484 1185.55329739 27.67819037 1201.21974257 C27.67760743 1202.15228347 27.67702449 1203.08482438 27.67642388 1204.04562411 C27.66968366 1214.4685135 27.66059313 1224.89139978 27.6501142 1235.31428602 C27.64637278 1239.10731574 27.6427135 1242.90034552 27.63912787 1246.69337538 C27.63823696 1247.62960149 27.63734604 1248.56582761 27.63642813 1249.53042421 C27.62211451 1265.16748494 27.62727918 1280.80447638 27.64705058 1296.4415305 C27.65832969 1306.05188103 27.65272182 1315.66192904 27.62477174 1325.27224711 C27.60682094 1331.84959347 27.60678435 1338.42678624 27.62056036 1345.00414208 C27.62787582 1348.78958536 27.62719706 1352.57456644 27.60427489 1356.35995749 C26.78137209 1381.73227101 26.78137209 1381.73227101 38.22384467 1403.41359022 C87.3722829 1430.30613189 150.20024518 1408.04742291 206.22384467 1408.41359022 C206.22384467 1520.61359022 206.22384467 1632.81359022 206.22384467 1748.41359022 C143.08040717 1748.47546522 143.08040717 1748.47546522 78.66134467 1748.53859022 C65.4013227 1748.55679823 52.14130072 1748.57500624 38.4794599 1748.593766 C22.20638862 1748.60279921 22.20638862 1748.60279921 14.57261481 1748.60447767 C9.27527371 1748.60633046 3.97797416 1748.61361413 -1.31935296 1748.62474135 C-8.10194474 1748.63896699 -14.8844777 1748.64254986 -21.66708348 1748.63973477 C-24.14034299 1748.64032238 -26.61360479 1748.64421429 -29.08685205 1748.65202048 C-44.43088816 1748.69815268 -59.51426396 1748.01052796 -74.77615533 1746.41359022 C-75.99169375 1746.29282684 -77.20723216 1746.17206347 -78.45960508 1746.04764059 C-136.03321894 1740.23962966 -192.00854756 1721.29725893 -235.77615533 1682.41359022 C-236.54314752 1681.76776991 -237.31013971 1681.1219496 -238.10037408 1680.45655897 C-242.04656091 1677.12672894 -245.49036016 1673.62023236 -248.81912408 1669.67530897 C-250.23758617 1668.03600847 -251.70564165 1666.43920118 -253.20193658 1664.87062147 C-278.8038746 1638.00896436 -295.39102323 1603.38487655 -306.77615533 1568.41359022 C-307.30185113 1566.80145643 -307.30185113 1566.80145643 -307.83816705 1565.15675429 C-322.76524017 1518.67567919 -327.28122834 1470.26773483 -327.17957709 1421.67319933 C-327.17470354 1417.69582966 -327.18751667 1413.71850432 -327.19793878 1409.74115065 C-327.21369454 1402.89263807 -327.21921162 1396.04418422 -327.2174109 1389.19565466 C-327.2149941 1379.26958683 -327.23120823 1369.34361053 -327.25186345 1359.41756696 C-327.28516364 1343.26838029 -327.30697265 1327.11920194 -327.3198565 1310.96998671 C-327.32062599 1310.00947503 -327.32139548 1309.04896335 -327.32218829 1308.05934525 C-327.32529064 1304.16746534 -327.32837344 1300.2755854 -327.33142833 1296.38370545 C-327.3399786 1285.64325808 -327.35087956 1274.90281361 -327.36282525 1264.16236952 C-327.36442728 1262.71750019 -327.36442728 1262.71750019 -327.36606167 1261.24344157 C-327.38421383 1245.12707095 -327.41022859 1229.01072007 -327.44095639 1212.89436874 C-327.45937897 1203.00205274 -327.47041791 1193.10978119 -327.47147831 1183.21744777 C-327.47258987 1176.44015593 -327.48062014 1169.66289461 -327.49386196 1162.8856157 C-327.50120368 1158.99195841 -327.50544154 1155.09836795 -327.50074372 1151.20470503 C-326.86856327 1118.29827053 -326.86856327 1118.29827053 -333.77615533 1086.41359022 C-334.13580377 1085.39394179 -334.49545221 1084.37429335 -334.86599908 1083.32374647 C-341.85101493 1065.04981612 -353.86286204 1052.99133454 -371.36209283 1044.71827772 C-401.16048011 1032.49172294 -434.50380565 1035.94363005 -465.77615533 1035.41359022 C-465.77615533 929.15359022 -465.77615533 822.89359022 -465.77615533 713.41359022 C-450.26615533 713.08359022 -434.75615533 712.75359022 -418.77615533 712.41359022 C-391.75340345 709.95697642 -365.83718076 707.45718888 -346.77615533 686.41359022 C-344.12683227 682.89233806 -341.87936804 679.2823167 -339.77615533 675.41359022 C-339.39072564 674.72651991 -339.00529596 674.0394496 -338.60818658 673.33155897 C-328.76089759 654.80658237 -327.62491571 634.09161416 -327.6313952 613.52407911 C-327.62825197 612.17305502 -327.62467502 610.82203187 -327.62070779 609.47100994 C-327.61111299 605.79577899 -327.60747637 602.12056357 -327.60486481 598.44532195 C-327.60093861 594.46606363 -327.59130257 590.48681862 -327.58230767 586.5075691 C-327.56742263 579.6188498 -327.55585322 572.73013153 -327.54635987 565.8414028 C-327.53241288 555.84899066 -327.51121244 545.85660319 -327.48793134 535.8642089 C-327.45006699 519.60601699 -327.41509882 503.34782058 -327.38333306 487.08961561 C-327.38048233 485.63209255 -327.38048233 485.63209255 -327.377574 484.14512458 C-327.35080755 470.39100179 -327.32691292 456.63687551 -327.304189 442.88274553 C-327.3025917 441.91621773 -327.30099439 440.94968994 -327.29934869 439.95387343 C-327.29775522 438.98854239 -327.29616176 438.02321135 -327.29452001 437.02862785 C-327.26761592 420.84853571 -327.23315925 404.66846977 -327.19269494 388.48840591 C-327.16811555 378.54160087 -327.14968087 368.59482378 -327.13953933 358.64799335 C-327.13206496 351.80828427 -327.11741651 344.96861284 -327.0974751 338.12892888 C-327.08624994 334.20216607 -327.07793864 330.27546344 -327.07848344 326.34868315 C-327.07864039 300.85085983 -326.40376794 275.35786179 -322.58865533 250.10109022 C-322.48455346 249.39386824 -322.38045159 248.68664625 -322.27319513 247.9579933 C-318.85076011 224.80558893 -314.3333371 201.59565705 -306.77615533 179.41359022 C-306.49191705 178.5639369 -306.20767877 177.71428358 -305.91482721 176.83888319 C-296.91640901 150.17888286 -284.97040251 124.56241407 -267.98806939 102.02687147 C-266.79479661 100.43840521 -265.62508761 98.83232547 -264.45584283 97.22609022 C-234.35468302 56.69383543 -191.04551507 31.09739589 -143.77615533 15.41359022 C-143.00013971 15.15593886 -142.22412408 14.89828749 -141.42459283 14.6328285 C-95.95456718 -0.05893947 -47.21333803 -0.19854671 0 0 Z " fill="#FEFEFE" transform="translate(1262.7761553302407,1218.5864097774029)"/>
<path d="M0 0 C118.14 0 236.28 0 358 0 C360.29621689 5.166488 362.5431391 10.23469143 364.6015625 15.48046875 C365.32206787 17.31254883 365.32206787 17.31254883 366.05712891 19.18164062 C366.57982193 20.51689995 367.102443 21.85218744 367.625 23.1875 C368.19045292 24.62830997 368.75605006 26.06906335 369.32177734 27.50976562 C370.8830566 31.48762806 372.44150558 35.4665944 373.99951172 39.44573975 C375.01840433 42.0469865 376.03833542 44.64782378 377.05859375 47.24853516 C385.9875196 70.00944014 394.86726679 92.78895432 403.69610596 115.58886719 C409.43367968 130.40456926 415.20247565 145.20765869 421 160 C427.2412152 175.92483837 433.44721737 191.86294611 439.625 207.8125 C447.40140476 227.88862403 455.21326355 247.95061556 463.04833984 268.00390625 C466.03370786 275.64530988 469.01544352 283.2881312 471.99752808 290.93081665 C473.66231277 295.19740707 475.32723505 299.46394379 476.9921875 303.73046875 C477.32175949 304.57502121 477.65133148 305.41957367 477.9908905 306.28971863 C480.01063009 311.46527628 482.03082702 316.64065517 484.05136108 321.81590271 C485.74272034 326.14804471 487.43390692 330.48025409 489.125 334.8125 C489.62583099 336.09551498 489.62583099 336.09551498 490.13677979 337.40444946 C494.44386496 348.43915526 498.74247034 359.47711347 503.03225708 370.51855469 C508.49756739 384.58448026 513.9774594 398.64469345 519.4710083 412.69961548 C520.27523264 414.75754772 521.07907232 416.81563032 521.88250732 418.87387085 C523.00777538 421.75620306 524.13454889 424.63794233 525.26171875 427.51953125 C525.59549026 428.37523712 525.92926178 429.23094299 526.27314758 430.11257935 C528.10099964 434.77994834 529.9983628 439.40437682 532 444 C532.2587793 443.32799561 532.51755859 442.65599121 532.78417969 441.96362305 C540.52371033 421.88236447 548.36333509 401.84092621 556.22729492 381.80810547 C557.10075655 379.5830109 557.97421032 377.35791324 558.84765625 375.1328125 C559.28061508 374.02988861 559.71357391 372.92696472 560.15965271 371.7906189 C562.98588967 364.58921883 565.80606701 357.38547658 568.62109375 350.1796875 C578.23118774 325.58206305 587.91489875 301.01455237 597.64569092 276.46443176 C607.04368382 252.7532702 616.39210663 229.02317662 625.67932129 205.2684021 C640.54604506 167.24240979 655.49234234 129.24749208 670.47265625 91.26611328 C672.00302631 87.38590856 673.5329399 83.50552408 675.0625 79.625 C675.31717041 78.97893799 675.57184082 78.33287598 675.83422852 77.66723633 C682.31132576 61.23253851 688.75403435 44.78432797 695.19750977 28.33642578 C696.02880832 26.21516916 696.86010714 24.09391265 697.69140625 21.97265625 C698.06696655 21.01346786 698.44252686 20.05427948 698.82946777 19.06602478 C699.88368987 16.37631085 700.94155642 13.68805501 702 11 C702.370112 10.05325409 702.740224 9.10650818 703.12155151 8.131073 C703.47967926 7.22213287 703.83780701 6.31319275 704.20678711 5.37670898 C704.52755722 4.55919662 704.84832733 3.74168427 705.17881775 2.8993988 C706 1 706 1 707 0 C708.90262577 -0.09765788 710.80893622 -0.12371326 712.71406651 -0.12304783 C713.96311317 -0.12503888 715.21215984 -0.12702993 716.4990564 -0.12908131 C717.90314411 -0.12622772 719.30723163 -0.12328211 720.71131897 -0.12025452 C722.18886074 -0.12069009 723.66640244 -0.12156474 725.14394373 -0.12284368 C729.22345757 -0.12509141 733.30294542 -0.12106359 737.38245595 -0.11606562 C741.77443578 -0.11176526 746.16641404 -0.11320725 750.55839539 -0.1139679 C758.17422396 -0.1144934 765.79004401 -0.11134389 773.40587044 -0.10573006 C784.4172091 -0.09761856 795.42854362 -0.0950002 806.43988495 -0.09374207 C824.30310598 -0.09155099 842.16632246 -0.08488941 860.02954102 -0.07543945 C877.38663714 -0.06626676 894.74373202 -0.05918523 912.10083008 -0.05493164 C913.16991177 -0.05466892 914.23899346 -0.05440619 915.34047157 -0.05413551 C920.70349844 -0.05283051 926.06652532 -0.0515668 931.4295522 -0.05032361 C975.95303795 -0.03994927 1020.47651874 -0.02232946 1065 0 C1064.5207818 1.44460513 1064.04096765 2.88901258 1063.56090069 4.33333588 C1063.29376788 5.13771135 1063.02663507 5.94208682 1062.75140733 6.77083731 C1061.94590782 9.16047259 1061.08304656 11.51885483 1060.16918945 13.86914062 C1059.8400354 14.71875366 1059.51088135 15.5683667 1059.17175293 16.44372559 C1058.82245728 17.33885864 1058.47316162 18.2339917 1058.11328125 19.15625 C1057.55247864 20.60094666 1057.55247864 20.60094666 1056.98034668 22.0748291 C1055.75983024 25.21737318 1054.53621916 28.35870184 1053.3125 31.5 C1052.45451377 33.70697004 1051.59668706 35.91400211 1050.73901367 38.12109375 C1048.16259931 44.74866578 1045.58187682 51.37455436 1043 58 C1042.6277832 58.95535645 1042.25556641 59.91071289 1041.87207031 60.89501953 C1036.59987407 74.42634908 1031.31653718 87.95331948 1026.03112793 101.47949219 C1023.74923392 107.31939416 1021.46796411 113.1595395 1019.1875 119 C1018.6983461 120.25268173 1018.6983461 120.25268173 1018.1993103 121.53067017 C1012.24624535 136.77896465 1006.32962662 152.04128181 1000.41732788 167.30541992 C994.27337805 183.16513469 988.09217384 199.00989143 981.88479614 214.84487915 C976.47419716 228.64877309 971.10246947 242.46723308 965.75378418 256.29522705 C958.99477392 273.76898966 952.16544832 291.21253971 945.25 308.625 C939.30149079 323.60283996 933.42541992 338.60443115 927.66577148 353.65588379 C922.26791034 367.75825254 916.77301162 381.82120691 911.25 395.875 C904.60881342 412.77743557 897.99758423 429.69091205 891.4375 446.625 C891.04776001 447.63084137 890.65802002 448.63668274 890.25646973 449.67300415 C886.71069853 458.82479093 883.1679724 467.97775364 879.62939453 477.13232422 C877.25450522 483.27632634 874.87802359 489.41971031 872.5 495.5625 C872.10903137 496.57259125 871.71806274 497.5826825 871.31524658 498.62338257 C864.99765024 514.93653867 858.57241724 531.20532039 852.11035156 547.46170044 C846.2865751 562.1208292 840.6044723 576.82726376 835.02389526 591.58050537 C829.39057022 606.46307352 823.56883549 621.26526255 817.68603516 636.05078125 C811.01469236 652.82568642 804.47984084 669.65026344 798 686.5 C791.11123292 704.41163709 784.15146544 722.29161465 777.0625 740.125 C771.13044475 755.04893188 765.27200542 769.99684452 759.53018188 784.99499512 C754.49546778 798.14492573 749.39056078 811.26609327 744.25 824.375 C737.96527015 840.40333091 731.71620079 856.44496664 725.5 872.5 C717.46056661 893.26115381 709.36044329 913.99807628 701.23919678 934.7273407 C694.80835716 951.1446135 688.40777603 967.57371699 682 984 C676.72 997.53 671.44 1011.06 666 1025 C577.89 1025 489.78 1025 399 1025 C392.73 1008.83 386.46 992.66 380 976 C375.4753708 964.42354314 375.4753708 964.42354314 370.93469238 952.85345459 C368.88241592 947.63502878 366.83407005 942.4150593 364.78515625 937.1953125 C364.17527359 935.64192673 364.17527359 935.64192673 363.55307007 934.05715942 C359.60593011 924.00142403 355.67515387 913.93933471 351.75 903.875 C351.42681793 903.04637451 351.10363586 902.21774902 350.7706604 901.36401367 C349.15869163 897.23073452 347.54704155 893.0973312 345.93554688 888.96386719 C342.96051933 881.33343759 339.98253227 873.70416286 337.00485229 866.07476807 C336.00060401 863.50154769 334.99649513 860.92827296 333.99243164 858.35498047 C331.02191374 850.74205904 328.05090831 843.12933018 325.07696533 835.51774597 C317.16013514 815.25502271 309.27470174 794.9804359 301.41732788 774.69458008 C295.27364685 758.83555917 289.09185833 742.99183957 282.88580322 727.15713501 C277.05750269 712.2841448 271.26829137 697.39635997 265.5 682.5 C259.33989899 666.59338292 253.15719801 650.69591425 246.9375 634.8125 C246.56769012 633.86807037 246.19788025 632.92364075 245.81686401 631.95059204 C243.21235601 625.29995832 240.60635784 618.64990896 238 612 C235.01979134 604.39624125 232.04027384 596.79221264 229.0625 589.1875 C228.69277069 588.24331207 228.32304138 587.29912415 227.94210815 586.32632446 C221.69421255 570.36680609 215.49139105 554.39004891 209.30252075 538.40756226 C203.56540328 523.59305134 197.79710893 508.79113425 192 494 C185.79951781 478.17967202 179.63575231 462.34554396 173.5 446.5 C165.46036127 425.73892521 157.36044364 405.00192462 149.23919678 384.2726593 C143.79012435 370.36173726 138.36389792 356.44189161 132.93511963 342.52304077 C130.66306231 336.69821558 128.38865542 330.87431145 126.11328125 325.05078125 C118.92413544 306.64818579 111.76129595 288.23565803 104.625 269.8125 C98.38249768 253.6971847 92.1148975 237.59198874 85.8125 221.5 C85.43964874 220.54796692 85.06679749 219.59593384 84.68264771 218.61505127 C83.19709202 214.82209002 81.71140945 211.02917849 80.22557068 207.23632812 C76.49875776 197.72231229 72.77815726 188.20587799 69.0625 178.6875 C68.57866348 177.44811172 68.57866348 177.44811172 68.08505249 176.1836853 C62.17174092 161.03251484 56.29469388 145.86736228 50.4197998 130.70126343 C43.47587492 112.77825456 36.48542398 94.87378559 29.47335815 76.9773407 C29.1096109 76.04895889 28.74586365 75.12057709 28.37109375 74.1640625 C28.00952179 73.24128006 27.64794983 72.31849762 27.27542114 71.36775208 C24.7098548 64.81793496 22.15175429 58.2652345 19.59765625 51.7109375 C19.23978531 50.79278259 18.88191437 49.87462769 18.51319885 48.9286499 C16.83298318 44.61757116 15.15365434 40.30615062 13.47583008 35.99414062 C12.86685527 34.43092878 12.25772709 32.86777668 11.6484375 31.3046875 C11.35589584 30.55350647 11.06335419 29.80232544 10.76194763 29.02838135 C9.12029317 24.82541786 7.45354652 20.63362717 5.76269531 16.45019531 C5.3918985 15.53134552 5.02110168 14.61249573 4.6390686 13.665802 C3.91887349 11.8846453 3.19565993 10.1047054 2.46908569 8.32614136 C2.14622589 7.52773834 1.82336609 6.72933533 1.49072266 5.90673828 C1.20250641 5.19945587 0.91429016 4.49217346 0.61734009 3.76345825 C0 2 0 2 0 0 Z " fill="#FEFEFE" transform="translate(1551,1605)"/>
<path d="M0 0 C15.44049511 -0.09099732 30.88085323 -0.16438142 46.3215456 -0.20724869 C53.49416655 -0.22769947 60.66660666 -0.25547587 67.83911133 -0.30175781 C74.1052724 -0.34217143 80.3713023 -0.36755898 86.63759011 -0.37635398 C89.94243382 -0.3814789 93.24661068 -0.39538169 96.55138588 -0.42292023 C135.77541138 -0.73625258 174.62358756 4.73103488 203.75 33.1875 C210.32641165 39.84292507 215.51523209 46.80680054 220 55 C220.35143066 55.63550781 220.70286133 56.27101563 221.06494141 56.92578125 C228.14502695 69.91394361 232.51718775 83.22259394 235.75 97.625 C236.06650513 99.01924194 236.06650513 99.01924194 236.3894043 100.44165039 C239.04937352 112.8923147 239.14882847 125.44486754 239.14476013 138.12506104 C239.14790133 139.71888686 239.15147784 141.31271188 239.15544754 142.90653586 C239.16506515 147.2527109 239.16868277 151.5988728 239.17129052 155.94505692 C239.17520938 160.64610663 239.1848456 165.34714501 239.19384766 170.04818726 C239.20874403 178.18758155 239.22030801 186.32697496 239.22979546 194.46637726 C239.24372153 206.2616368 239.26491807 218.0568753 239.28822399 229.85211965 C239.32609791 249.02771021 239.36106804 268.20330459 239.39282227 287.37890625 C239.39472276 288.5253555 239.39662325 289.67180475 239.39858133 290.85299489 C239.42537758 307.09985258 239.44926425 323.34671325 239.47196633 339.59357712 C239.47356363 340.73638807 239.47516094 341.87919903 239.47680664 343.05664062 C239.47840011 344.19804442 239.47999357 345.33944822 239.48163532 346.51544002 C239.50848562 365.60754735 239.54291902 384.69963225 239.58346039 403.79171538 C239.60811307 415.54271596 239.62650763 427.29369252 239.636616 439.04471478 C239.64405761 447.1131665 239.6586591 455.1815859 239.67868023 463.25001612 C239.68996902 467.89107656 239.6982124 472.53208515 239.69767189 477.17316055 C239.69760584 522.82067889 240.97087901 568.8210883 271 606 C271.6496875 606.825 272.299375 607.65 272.96875 608.5 C285.48411939 623.44372464 304.46688646 634.38826531 323 640 C323.83015625 640.26167969 324.6603125 640.52335937 325.515625 640.79296875 C331.1088261 642.44246069 336.7675227 643.58970522 342.5 644.625 C343.17562988 644.74818604 343.85125977 644.87137207 344.54736328 644.99829102 C353.94703674 646.62097385 363.39326936 647.14479051 372.91796875 647.31640625 C373.90122635 647.33718735 374.88448395 647.35796844 375.89753723 647.37937927 C378.99413041 647.44401141 382.09079772 647.50335195 385.1875 647.5625 C387.30534577 647.60576764 389.42318443 647.64938434 391.54101562 647.69335938 C396.69393726 647.79960226 401.84693234 647.90110435 407 648 C407.02332875 664.80223821 407.04097906 681.60447139 407.05181217 698.40672207 C407.05697518 706.20775836 407.06401797 714.00878461 407.07543945 721.80981445 C407.08538615 728.60676313 407.09185339 735.40370454 407.09408849 742.20066029 C407.09539563 745.80178131 407.09848164 749.40288152 407.10573006 753.0039959 C407.11374364 757.01756602 407.11399115 761.03109964 407.11352539 765.04467773 C407.11712067 766.24732773 407.12071594 767.44997772 407.12442017 768.68907166 C407.1230455 769.77587219 407.12167084 770.86267273 407.12025452 771.98240662 C407.12163721 773.40795947 407.12163721 773.40795947 407.12304783 774.86231136 C407 777 407 777 406 778 C402.99646894 778.11164757 400.01229512 778.16238819 397.0078125 778.17578125 C395.09861977 778.19572866 393.18943991 778.21693822 391.28027344 778.23925781 C390.2747644 778.25041626 389.26925537 778.26157471 388.23327637 778.27307129 C347.01851472 778.79588353 305.91159759 783.75014153 275.4140625 814.51269531 C246.20300943 845.23675182 239.85443272 887.57916514 239.84851074 928.26828003 C239.84465214 929.87748255 239.84036314 931.48668409 239.83568525 933.09588444 C239.82413968 937.48416684 239.8185837 941.8724389 239.81405044 946.26073337 C239.80806472 951.00658338 239.79640604 955.75241991 239.78541565 960.4982605 C239.76711845 968.71297726 239.7522517 976.92769436 239.73963928 985.14242172 C239.72128861 997.03570349 239.69662484 1008.92896596 239.67026538 1020.82223238 C239.6275258 1040.14238695 239.58840106 1059.46254687 239.55224609 1078.78271484 C239.55008329 1079.93776843 239.54792049 1081.09282201 239.54569215 1082.28287722 C239.53036635 1090.48025131 239.51516947 1098.67762563 239.5 1106.875 C239.48267616 1116.23551449 239.46529039 1125.59602887 239.44775391 1134.95654297 C239.44559504 1136.10957479 239.44343617 1137.26260661 239.44121188 1138.45057879 C239.40505491 1157.69857166 239.36509828 1176.94655487 239.32245111 1196.19453442 C239.29636056 1208.05304243 239.27368556 1219.91154757 239.25546753 1231.77007033 C239.24276224 1239.89917781 239.22662195 1248.02827383 239.20781839 1256.15736948 C239.19710611 1260.84173479 239.18796863 1265.52608912 239.18312263 1270.21046448 C239.17865239 1274.50742911 239.16963978 1278.80436053 239.15717942 1283.1013092 C239.15347857 1284.64693457 239.15138489 1286.1925649 239.15115923 1287.73819469 C239.14747966 1301.87931776 238.8189495 1315.60544679 235.3125 1329.375 C235.0455835 1330.44790283 234.77866699 1331.52080566 234.50366211 1332.6262207 C227.26183468 1361.01324896 214.0672128 1388.59027428 188.86328125 1405.3125 C176.45118877 1412.62767592 163.47687669 1418.53194768 149.375 1421.625 C148.50488281 1421.82867188 147.63476562 1422.03234375 146.73828125 1422.2421875 C129.0049002 1426.22262986 111.62525351 1426.26839332 93.53125 1426.1953125 C90.79642851 1426.19045146 88.06160717 1426.18863327 85.32678223 1426.18673706 C78.90636684 1426.1805685 72.48602113 1426.16422166 66.06563616 1426.14403808 C58.74497897 1426.1215334 51.42431811 1426.11064936 44.10363483 1426.10064721 C29.06904492 1426.07985021 14.03454529 1426.0432333 -1 1426 C-1 1409.83 -1 1393.66 -1 1377 C4.38650879 1376.99383667 4.38650879 1376.99383667 9.88183594 1376.98754883 C21.81609367 1376.9702646 33.75011073 1376.92586647 45.6842308 1376.86790943 C52.91191637 1376.83345755 60.13941515 1376.80793022 67.3671875 1376.80444336 C73.67701592 1376.80137556 79.98650999 1376.78051355 86.29620957 1376.73947543 C89.62822132 1376.718394 92.95936076 1376.70807112 96.29149628 1376.71384621 C121.42600766 1376.74722695 145.37843692 1374.40728878 164.12109375 1355.90625 C183.14451755 1335.48034316 186.1585057 1307.61437036 186.13803101 1280.92526245 C186.14045253 1279.30031488 186.14331587 1277.67536793 186.14658034 1276.05042183 C186.15429627 1271.60432368 186.15595076 1267.158241 186.15663147 1262.71213698 C186.15847804 1257.90880478 186.16608906 1253.10548148 186.17311096 1248.30215454 C186.18461864 1239.98099759 186.19287266 1231.65984265 186.19923019 1223.33868027 C186.20958376 1210.16653877 186.23015596 1196.99442225 186.25234985 1183.82229614 C186.25982918 1179.30924042 186.26724304 1174.7961846 186.27463722 1170.28312874 C186.27741307 1168.5913579 186.27741307 1168.5913579 186.280245 1166.86540987 C186.30115968 1154.03511292 186.31999203 1141.20481321 186.33789062 1128.37451172 C186.33952881 1127.20217873 186.34116699 1126.02984575 186.34285481 1124.82198752 C186.36910131 1105.85311929 186.38776703 1086.88424912 186.40448253 1067.91537045 C186.42195048 1048.40638121 186.450847 1028.89742977 186.4893719 1009.38847077 C186.51267293 997.37585611 186.52675752 985.36330314 186.52869953 973.3506657 C186.53082148 965.10230218 186.54385483 956.85399978 186.56517886 948.60566376 C186.57711301 943.8594108 186.58442346 939.11327909 186.57846642 934.36701202 C186.51900699 879.54189161 195.00095963 825.52076698 235 785 C267.61153854 752.33355988 313.13640748 739.24317963 358 737 C358 720.83 358 704.66 358 688 C352.39 688 346.78 688 341 688 C337.22915501 687.52864438 333.69175692 687.02082583 330 686.25 C329.07413086 686.06735596 328.14826172 685.88471191 327.19433594 685.6965332 C324.45887087 685.1488277 321.72957418 684.5762321 319 684 C318.22591797 683.84515137 317.45183594 683.69030273 316.65429688 683.53076172 C288.65101259 677.92140819 257.16580454 663.73906891 237.59765625 642.60546875 C235.93617302 640.86871942 235.93617302 640.86871942 233.57421875 639.109375 C215.24272037 624.08811685 204.36812393 598.86750323 197 577 C196.61070312 575.88238281 196.22140625 574.76476563 195.8203125 573.61328125 C185.67147628 542.89141658 186.69474133 509.94936849 186.72730291 477.97921419 C186.72982529 473.27586762 186.72065345 468.57254055 186.71292114 463.86920166 C186.70098777 455.75354906 186.69577422 447.63791592 186.69503975 439.52225494 C186.69370223 427.76937916 186.67848967 416.01654995 186.65954458 404.2636908 C186.62884307 385.16050017 186.60460999 366.05730835 186.58666992 346.95410156 C186.5850609 345.24609372 186.5850609 345.24609372 186.58341938 343.50358066 C186.57158618 330.78550992 186.56137789 318.0674387 186.55297852 305.34936523 C186.54990376 300.72672525 186.5468151 296.10408527 186.54370117 291.48144531 C186.54255316 289.77010233 186.54255316 289.77010233 186.54138196 288.02418676 C186.52827972 268.96886112 186.50362118 249.91356972 186.46995777 230.85826945 C186.44974534 219.13911458 186.4393676 207.42003303 186.44194698 195.70086059 C186.44298568 187.67513094 186.43328712 179.64945928 186.41530795 171.62374988 C186.40531551 167.00366301 186.40007827 162.38370453 186.40807533 157.76361084 C186.41532878 153.52260332 186.40850693 149.28184435 186.39118993 145.04086813 C186.38735328 143.51925164 186.38839782 141.99761186 186.39524681 140.47600594 C186.49722446 115.83781308 182.14362085 88.50411562 164.33203125 70.20703125 C151.21072048 57.78904032 137.32775755 53.34358172 120 50 C118.85436317 49.74546854 118.85436317 49.74546854 117.68558216 49.48579502 C115.07267167 49.01314558 112.68471202 48.86206884 110.03288269 48.84178162 C109.05838165 48.8319928 108.08388062 48.82220398 107.07984924 48.81211853 C106.02249069 48.80636307 104.96513214 48.8006076 103.87573242 48.79467773 C102.75334167 48.78477814 101.63095093 48.77487854 100.47454834 48.76467896 C96.76820986 48.73311579 93.06185858 48.7083269 89.35546875 48.68359375 C86.78428313 48.66301976 84.21310086 48.64202317 81.641922 48.62062073 C75.56827209 48.57108417 69.49460414 48.52580694 63.42090636 48.48259836 C56.50432551 48.4331554 49.58779123 48.37826353 42.67125547 48.32291877 C28.44754597 48.20922528 14.2237903 48.10307815 0 48 C0 32.16 0 16.32 0 0 Z " fill="#45A748" transform="translate(2831,1380)"/>
<path d="M0 0 C1.81723068 -0.00043808 1.81723068 -0.00043808 3.6711731 -0.00088501 C6.94303823 0.00025655 10.21472451 0.01017593 13.48655462 0.02426291 C16.92446943 0.03690129 20.36238903 0.03795096 23.80032349 0.04031372 C30.28809536 0.04649046 36.77579854 0.06284882 43.26354039 0.0830127 C50.65911969 0.10549135 58.05470256 0.11639499 65.45030761 0.12640357 C80.64286012 0.14721918 95.83532359 0.18384682 111.02783203 0.22705078 C111.02783203 16.06705078 111.02783203 31.90705078 111.02783203 48.22705078 C99.66410156 48.30052734 99.66410156 48.30052734 88.07080078 48.37548828 C83.23550197 48.4109257 78.40021958 48.44691481 73.56494141 48.48486328 C65.9112397 48.54487977 58.25756063 48.6029914 50.60375977 48.64892578 C44.42447842 48.68613966 38.24532588 48.73259103 32.06615639 48.78511429 C29.72341513 48.80346848 27.38064647 48.81864419 25.03786278 48.83039474 C-16.67221449 48.96976436 -16.67221449 48.96976436 -52.01586914 69.02905273 C-71.91089849 89.19288726 -75.11970308 116.95347688 -75.12365723 143.96252441 C-75.1275129 145.55050051 -75.13180139 147.13847561 -75.13648272 148.72644949 C-75.1480625 153.07011178 -75.15359257 157.4137636 -75.15811753 161.75743818 C-75.16409014 166.4502282 -75.17575242 171.14300447 -75.18675232 175.83578491 C-75.20507154 183.96378718 -75.21992986 192.09178979 -75.23252869 200.21980286 C-75.25086466 211.99105106 -75.2755298 223.76227966 -75.30190259 235.53351229 C-75.34467008 254.65889116 -75.38378559 273.78427547 -75.41992188 292.90966797 C-75.42208468 294.05366867 -75.42424748 295.19766937 -75.42647582 296.37633675 C-75.44179818 304.49324126 -75.45699273 312.610146 -75.47216797 320.72705078 C-75.48948473 329.98518899 -75.5068738 339.24332706 -75.52441406 348.50146484 C-75.52657293 349.64164064 -75.5287318 350.78181645 -75.53095609 351.95654303 C-75.56713611 371.00218321 -75.60709799 390.0478137 -75.64971685 409.09344053 C-75.67578897 420.82659951 -75.69846839 432.55975564 -75.71670043 444.29292947 C-75.72942343 452.34219322 -75.74557006 460.39144549 -75.76434958 468.44069737 C-75.77504364 473.07680711 -75.78418796 477.71290589 -75.78904533 482.34902573 C-75.79352996 486.60555776 -75.80256462 490.86205661 -75.81498855 495.11857265 C-75.8186762 496.6461716 -75.82078222 498.1737755 -75.82100874 499.70137888 C-75.82481948 514.12698152 -76.12347567 528.63824317 -78.34716797 542.91455078 C-78.54886597 544.2393042 -78.54886597 544.2393042 -78.75463867 545.59082031 C-79.14971144 548.13807917 -79.56033568 550.68245962 -79.97216797 553.22705078 C-80.26027344 555.13550781 -80.26027344 555.13550781 -80.55419922 557.08251953 C-84.88190188 582.23903631 -95.83252767 607.47338811 -111.97216797 627.22705078 C-112.44332031 627.81486328 -112.91447266 628.40267578 -113.39990234 629.00830078 C-130.42202079 650.18725306 -153.46178341 666.37362594 -179.05175781 675.53710938 C-180.35559162 676.00553479 -181.655342 676.48545339 -182.95117188 676.97558594 C-203.44403398 684.71864152 -225.14419744 688.22705078 -246.97216797 688.22705078 C-246.97216797 704.39705078 -246.97216797 720.56705078 -246.97216797 737.22705078 C-240.70216797 737.55705078 -234.43216797 737.88705078 -227.97216797 738.22705078 C-222.2484416 739.09805262 -216.62676186 740.04128191 -210.97216797 741.22705078 C-210.28445313 741.36481934 -209.59673828 741.50258789 -208.88818359 741.64453125 C-185.63511803 746.34843717 -163.44634234 755.69098 -143.97216797 769.22705078 C-142.50070312 770.23832031 -142.50070312 770.23832031 -140.99951172 771.27001953 C-121.8878563 784.97999576 -107.97708365 801.5776505 -96.97216797 822.22705078 C-96.17359375 823.68498047 -96.17359375 823.68498047 -95.35888672 825.17236328 C-88.55089509 838.08467816 -84.46451609 851.86936265 -81.43438959 866.09106433 C-81.13414399 867.47853847 -80.82548915 868.86422913 -80.5070281 870.24763596 C-75.48652361 892.10837665 -75.53603844 913.9444134 -75.58340526 936.23683 C-75.59028502 941.06169829 -75.57962701 945.88653397 -75.57112122 950.71139526 C-75.55862979 959.04926139 -75.55655604 967.38707565 -75.56147766 975.72494888 C-75.56832695 987.80255145 -75.55569605 999.88007682 -75.53797048 1011.95766555 C-75.50940221 1031.58928666 -75.49182973 1051.22089938 -75.48339844 1070.85253906 C-75.48289126 1072.02428869 -75.48238408 1073.19603831 -75.48186153 1074.4032955 C-75.47782991 1083.9096799 -75.4743354 1093.41606449 -75.4708643 1102.92244911 C-75.46780626 1111.23573442 -75.46453395 1119.5490196 -75.4609375 1127.86230469 C-75.46043488 1129.03321282 -75.45993227 1130.20412095 -75.45941442 1131.41051115 C-75.45065175 1150.97752147 -75.4301812 1170.544503 -75.4014554 1190.11149395 C-75.38434421 1202.15032662 -75.37765954 1214.18907753 -75.38476145 1226.22792076 C-75.38896009 1234.48126906 -75.38252914 1242.73456595 -75.36796272 1250.9879023 C-75.35995602 1255.73793168 -75.3567064 1260.48783332 -75.36678505 1265.23786163 C-75.99168149 1298.12353652 -75.99168149 1298.12353652 -68.65966797 1329.91455078 C-68.35335449 1330.74067871 -68.04704102 1331.56680664 -67.73144531 1332.41796875 C-61.09726057 1349.7919057 -49.61136798 1361.89023948 -32.92138672 1369.91064453 C-21.71931829 1374.91077309 -10.7555261 1376.52222642 1.45410156 1376.54589844 C2.65525101 1376.55594406 3.85640045 1376.56598969 5.09394836 1376.57633972 C8.35565718 1376.6017578 11.61727242 1376.61871796 14.87904978 1376.63176775 C18.29969519 1376.64750305 21.7202549 1376.67425951 25.14083862 1376.69979858 C31.60388712 1376.74640371 38.06695206 1376.78323559 44.53008163 1376.81647146 C51.89419281 1376.85482273 59.25821752 1376.90419837 66.62225556 1376.95445561 C81.75738943 1377.05750347 96.89256479 1377.14539642 112.02783203 1377.22705078 C112.02783203 1393.39705078 112.02783203 1409.56705078 112.02783203 1426.22705078 C96.22292008 1426.2951468 80.41812711 1426.35025087 64.61311054 1426.3824873 C57.27221178 1426.39786257 49.93141159 1426.41876984 42.59057617 1426.45336914 C36.18164229 1426.48356137 29.7727799 1426.50269333 23.36377686 1426.50931627 C19.97987019 1426.51317894 16.59632772 1426.52370501 13.21245766 1426.54424095 C-26.19792794 1426.77364444 -63.87962339 1420.95185252 -92.97216797 1392.22705078 C-103.84047013 1381.37788295 -111.02011198 1368.24199498 -116.97216797 1354.22705078 C-117.29403076 1353.50437012 -117.61589355 1352.78168945 -117.94750977 1352.03710938 C-120.95961022 1344.99380371 -122.60879709 1337.83651334 -124.15966797 1330.35205078 C-124.41941406 1329.16224609 -124.67916016 1327.97244141 -124.94677734 1326.74658203 C-127.65317877 1313.94886987 -128.1211347 1301.36852137 -128.1169281 1288.3250885 C-128.12006855 1286.74322609 -128.12364489 1285.1613645 -128.12761551 1283.57950395 C-128.1372424 1279.26159517 -128.14085231 1274.9436996 -128.14345849 1270.62578166 C-128.14737465 1265.95667628 -128.15701125 1261.28758234 -128.16601562 1256.6184845 C-128.18091859 1248.53201088 -128.19247988 1240.44553816 -128.20196342 1232.35905647 C-128.21588876 1220.63593286 -128.23708595 1208.91283043 -128.26039196 1197.18972211 C-128.29827642 1178.12575401 -128.33324175 1159.06178204 -128.36499023 1139.99780273 C-128.36689073 1138.85781845 -128.36879122 1137.71783417 -128.3707493 1136.54330491 C-128.39752748 1120.39936843 -128.42141775 1104.25542895 -128.4441343 1088.11148631 C-128.4457316 1086.97665628 -128.44732891 1085.84182624 -128.44897461 1084.67260742 C-128.45056808 1083.5391765 -128.45216154 1082.40574558 -128.45380329 1081.23796827 C-128.4806756 1062.26339454 -128.51511974 1043.28884328 -128.55562836 1024.3142938 C-128.58025412 1012.63937719 -128.59866348 1000.96448461 -128.60878397 989.28954624 C-128.61623894 981.26731052 -128.63085976 973.24510714 -128.6508482 965.22289295 C-128.66211152 960.61172288 -128.67038207 956.00060462 -128.66983986 951.38941956 C-128.66986978 934.94038077 -128.7506945 918.53758177 -129.85047913 902.11936951 C-129.92569052 900.99102788 -130.00090192 899.86268625 -130.07839245 898.70015246 C-132.27733128 869.94240935 -141.45711865 842.59400721 -159.97216797 820.22705078 C-160.66826172 819.36724609 -161.36435547 818.50744141 -162.08154297 817.62158203 C-184.24442225 791.53571135 -217.38370595 783.16136692 -249.97216797 779.22705078 C-265.27477999 778.04992678 -280.63139062 777.69192282 -295.97216797 777.22705078 C-295.97216797 734.65705078 -295.97216797 692.08705078 -295.97216797 648.22705078 C-282.44216797 647.89705078 -268.91216797 647.56705078 -254.97216797 647.22705078 C-242.89832395 646.39941106 -242.89832395 646.39941106 -231.09716797 644.47705078 C-229.83163086 644.21589478 -229.83163086 644.21589478 -228.54052734 643.94946289 C-207.13327826 639.36997319 -187.84238634 631.40739032 -170.97216797 617.22705078 C-170.14072266 616.58896484 -169.30927734 615.95087891 -168.45263672 615.29345703 C-143.31875559 594.35515291 -133.53293825 558.13872532 -129.97216797 527.22705078 C-129.05514557 516.69934552 -128.82405472 506.2128508 -128.82740784 495.64906311 C-128.82426518 494.03059775 -128.82068836 492.41213319 -128.81672043 490.79366964 C-128.80712097 486.3890315 -128.8034883 481.98440631 -128.80087745 477.57975924 C-128.79695331 472.81279496 -128.78731791 468.04584181 -128.77832031 463.27888489 C-128.76343706 455.03037305 -128.7518678 446.78186207 -128.74237251 438.53334236 C-128.7284459 426.59016249 -128.70725092 414.64700338 -128.68394398 402.70383852 C-128.64609154 383.30052939 -128.61111134 363.89721653 -128.5793457 344.49389648 C-128.57649496 342.75443423 -128.57649496 342.75443423 -128.57358664 340.97983133 C-128.54675132 324.52113146 -128.52287265 308.06242863 -128.50020164 291.60372256 C-128.49860433 290.44438426 -128.49700703 289.28504595 -128.49536133 288.09057617 C-128.49376786 286.93266121 -128.4921744 285.77474625 -128.49053264 284.58174295 C-128.46373061 265.24892317 -128.42932102 245.91612576 -128.38870758 226.58333009 C-128.3639952 214.67555226 -128.34563366 202.76779842 -128.33555197 190.85999905 C-128.32813962 182.69725368 -128.31358121 174.53454063 -128.29348774 166.3718167 C-128.28214253 161.66907414 -128.27395928 156.96638358 -128.27449608 152.2636261 C-128.27492735 147.94876904 -128.26608941 143.6340286 -128.25024628 139.31920152 C-128.24613069 137.76823678 -128.24526782 136.21725877 -128.24821038 134.66629136 C-128.27030426 121.37787352 -127.2037544 108.28074881 -124.22216797 95.28955078 C-124.05297852 94.54850098 -123.88378906 93.80745117 -123.70947266 93.04394531 C-118.25164178 70.16080182 -108.12927401 50.37279093 -91.97216797 33.22705078 C-91.35857422 32.53740234 -90.74498047 31.84775391 -90.11279297 31.13720703 C-74.20076127 13.96717283 -49.51788665 5.76323889 -26.97216797 2.22705078 C-25.9826306 2.06466478 -24.99309322 1.90227879 -23.97356987 1.734972 C-15.91917256 0.48579428 -8.14296425 -0.05278997 0 0 Z " fill="#45A749" transform="translate(1224.97216796875,1379.77294921875)"/>
<path d="M0 0 C14.19 0 28.38 0 43 0 C45.62022706 5.24045412 47.99286186 10.25309155 50.0390625 15.6953125 C50.45595589 16.78766457 50.45595589 16.78766457 50.88127136 17.90208435 C51.48298606 19.47949447 52.08294206 21.05757637 52.68130493 22.63626099 C54.33672601 27.00198372 56.00702408 31.36201758 57.67578125 35.72265625 C58.02712631 36.64161179 58.37847137 37.56056732 58.74046326 38.50737 C62.71079779 48.88008174 66.75860204 59.22222301 70.8125 69.5625 C71.57162274 71.49975266 72.33073727 73.43700854 73.08984375 75.37426758 C74.62373059 79.28810195 76.15815725 83.20172423 77.69287109 87.11523438 C81.50837872 96.84577755 85.31646587 106.57922584 89.125 116.3125 C89.49853607 117.2670105 89.87207214 118.221521 90.25692749 119.20495605 C97.52744167 137.78378274 104.78225905 156.36871396 112.03222656 174.95556641 C115.01989904 182.6148891 118.00900757 190.27365141 120.99798584 197.9324646 C122.66538063 202.20495426 124.33268585 206.47747887 126 210.75 C126.66666624 212.4583335 127.3333329 214.16666683 128 215.875 C129.33333333 219.29166667 130.66666667 222.70833333 132 226.125 C132.33001007 226.97065018 132.66002014 227.81630035 133.00003052 228.68757629 C133.66659718 230.39565464 134.33316212 232.10373366 134.99972534 233.81181335 C136.66790792 238.08655348 138.33612056 242.36128187 140.00439453 246.63598633 C142.98633384 254.27684818 145.96808001 261.91778504 148.94866943 269.55917358 C156.28869584 288.37686773 163.63748041 307.19109395 171 326 C178.69048817 345.64676192 186.36525428 365.29961729 194.03222656 384.95556641 C196.01839454 390.04739007 198.00520005 395.13896482 199.9921875 400.23046875 C200.32259033 401.07710083 200.65299316 401.92373291 200.9934082 402.79602051 C201.99559515 405.3640177 202.997795 407.93200985 204 410.5 C211.34836666 429.32901525 211.34836666 429.32901525 214.94866943 438.55917358 C221.90859314 456.4023949 228.87515224 474.24298563 235.85623169 492.07794189 C247.29454294 521.30012771 258.72261737 550.52596165 270.05505371 579.78939819 C277.88394287 600.00523113 285.76698907 620.19915353 293.69213867 640.37744141 C297.70950233 650.60670188 301.72143989 660.83795859 305.7109375 671.078125 C306.08303848 672.03303833 306.45513947 672.98795166 306.83851624 673.97180176 C308.58242156 678.44799684 310.32483467 682.92476555 312.06518555 687.40234375 C312.68014264 688.98178374 313.295131 690.56121155 313.91015625 692.140625 C314.181091 692.83923645 314.45202576 693.5378479 314.73117065 694.25762939 C316.40203165 698.54475272 318.16684849 702.77960785 320 707 C320.29430908 706.22140625 320.58861816 705.4428125 320.8918457 704.640625 C327.882498 686.17966682 335.02940738 667.78510091 342.3125 649.4375 C348.22727628 634.53610815 354.11988144 619.62711643 359.9375 604.6875 C361.24600144 601.32808904 362.5545825 597.9687091 363.86328125 594.609375 C364.19412216 593.76008423 364.52496307 592.91079346 364.86582947 592.0357666 C369.1029063 581.16342073 373.36381201 570.30041356 377.625 559.4375 C378.25041183 557.84310089 378.25041183 557.84310089 378.88845825 556.2164917 C389.71316627 528.6226932 400.55493769 501.03559368 411.39575195 473.44812012 C414.63902573 465.19465516 417.88213844 456.94112693 421.125 448.6875 C421.58179138 447.52489655 422.03858276 446.36229309 422.50921631 445.16445923 C429.01242663 428.61210028 435.50885157 412.05709253 442 395.5 C454.85143673 362.71993734 467.70985203 329.94252265 480.625 297.1875 C489.01684571 275.90394383 497.35709933 254.60010475 505.70648193 233.29986572 C509.42882329 223.80388189 513.151691 214.30810446 516.875 204.8125 C517.48796432 203.24921967 517.48796432 203.24921967 518.11331177 201.65435791 C525.19937599 183.58319974 532.29578326 165.51611473 539.3949585 147.45010376 C545.93658668 130.80265848 552.47153403 114.15261113 559 97.5 C565.80147842 80.15218254 572.60625825 62.805664 579.41748047 45.46166992 C580.37532915 43.02244489 581.33301632 40.58315643 582.29052734 38.14379883 C585.18874697 30.76058177 588.09178592 23.37928567 591 16 C591.33004028 15.16090088 591.66008057 14.32180176 592.00012207 13.45727539 C592.85408337 11.28811695 593.71142455 9.12033643 594.5703125 6.953125 C595.02422363 5.80489258 595.47813477 4.65666016 595.94580078 3.47363281 C597 1 597 1 598 0 C599.35094982 -0.09268999 600.70667091 -0.11747326 602.06079102 -0.11352539 C602.92160782 -0.11344986 603.78242462 -0.11337433 604.66932678 -0.11329651 C605.60473801 -0.10813522 606.54014923 -0.10297394 607.50390625 -0.09765625 C608.45692123 -0.0962413 609.40993622 -0.09482635 610.39183044 -0.09336853 C613.44875165 -0.08775152 616.50560077 -0.07519616 619.5625 -0.0625 C621.62955624 -0.05748719 623.69661362 -0.05292391 625.76367188 -0.04882812 C630.84247588 -0.03777656 635.9212257 -0.02050055 641 0 C637.26385928 10.82850452 633.30018838 21.53495655 629.05355835 32.17333984 C627.40236614 36.31068148 625.76266846 40.4525853 624.12109375 44.59375 C623.78042374 45.45234619 623.43975372 46.31094238 623.08876038 47.19555664 C619.41931057 56.4497942 615.80099401 65.72380157 612.1875 75 C610.8439069 78.44797783 609.50012565 81.89588229 608.15625 85.34375 C607.8179567 86.21177246 607.47966339 87.07979492 607.13111877 87.97412109 C604.64555413 94.34970872 602.15264367 100.72239544 599.65625 107.09375 C599.29073029 108.02670898 598.92521057 108.95966797 598.5486145 109.92089844 C597.99692093 111.32903809 597.99692093 111.32903809 597.43408203 112.765625 C589.94868442 131.87138208 582.50799333 150.99387017 575.10092163 170.13012695 C569.94805342 183.43912718 564.756757 196.73169859 559.5 210 C553.78989656 224.41279303 548.16013935 238.85566511 542.5625 253.3125 C542.15770416 254.35783905 541.75290833 255.4031781 541.33584595 256.48019409 C540.52109885 258.58420151 539.70635579 260.6882105 538.89161682 262.79222107 C538.49168015 263.82500687 538.09174347 264.85779266 537.6796875 265.921875 C537.28140244 266.95043106 536.88311737 267.97898712 536.47276306 269.03871155 C525.92475235 296.27179432 515.2549765 323.45707196 504.57034302 350.63677979 C496.64734454 370.79202919 488.75744803 390.95991839 480.89453125 411.13867188 C477.64049266 419.48924531 474.38281105 427.83839775 471.125 436.1875 C470.63401825 437.44589188 470.63401825 437.44589188 470.13311768 438.72970581 C464.38351164 453.46525584 458.6208352 468.19567385 452.8550415 482.92489624 C447.56198806 496.44680169 442.27664804 509.97168452 437 523.5 C431.72363616 537.02758686 426.43856694 550.55173562 421.14578247 564.07290649 C415.11317669 579.48420981 409.08155412 594.89589786 403.0625 610.3125 C402.73888489 611.14135712 402.41526978 611.97021423 402.08184814 612.82418823 C398.22476386 622.70574248 394.38012497 632.59203636 390.55078125 642.484375 C390.17084518 643.46584 389.79090912 644.44730499 389.39945984 645.45851135 C389.01538467 646.45068161 388.63130951 647.44285187 388.2355957 648.46508789 C371.36044663 692.05655927 354.21052242 735.54000706 337 779 C326.11 779 315.22 779 304 779 C288.89353025 740.87050546 273.94269609 702.6812262 259.03881836 664.47216797 C254.4156058 652.62075318 249.78283355 640.77310014 245.14578247 628.92709351 C239.11317669 613.51579019 233.08155412 598.10410214 227.0625 582.6875 C226.73888489 581.85864288 226.41526978 581.02978577 226.08184814 580.17581177 C222.22476385 570.29425749 218.38013506 560.40795976 214.55078125 550.515625 C214.17079987 549.53406937 213.79081848 548.55251373 213.39932251 547.54121399 C213.0152121 546.54897324 212.63110168 545.55673248 212.23535156 544.53442383 C203.55412836 522.10943223 194.79749293 499.71511146 185.99511719 477.33740234 C180.52055222 463.41936309 175.05809653 449.4967826 169.625 435.5625 C169.30536285 434.74273682 168.98572571 433.92297363 168.65640259 433.07836914 C167.07163805 429.01350365 165.48736663 424.9484462 163.90332031 420.88330078 C160.94058366 413.28075263 157.9733382 405.67996357 155.0065918 398.07897949 C153.33499362 393.79619334 151.66357771 389.51333607 149.9921875 385.23046875 C149.66180481 384.38388702 149.33142212 383.5373053 148.99102783 382.66506958 C147.01071091 377.59048479 145.0308391 372.5157266 143.05133057 367.44082642 C135.71130416 348.62313227 128.36251959 329.80890605 121 311 C113.30951183 291.35323808 105.63474572 271.70038271 97.96777344 252.04443359 C95.98160546 246.95260993 93.99479995 241.86103518 92.0078125 236.76953125 C91.51220825 235.49958313 91.51220825 235.49958313 91.0065918 234.20397949 C90.00440485 231.6359823 89.002205 229.06799015 88 226.5 C80.65163334 207.67098475 80.65163334 207.67098475 77.05133057 198.44082642 C69.71130416 179.62313227 62.36251959 160.80890605 55 142 C47.64044544 123.19866866 40.2946015 104.39202761 32.95773315 85.58183289 C30.61874816 79.58537843 28.27842937 73.58944564 25.9375 67.59375 C22.94140992 59.91998281 19.9466362 52.24570346 16.95333862 44.57084656 C15.28262718 40.28727259 13.61121526 36.00397418 11.93847656 31.72119141 C10.27166444 27.45350332 8.60646847 23.18518806 6.94244385 18.91641235 C6.31783455 17.31492317 5.69263807 15.71366287 5.0668335 14.11264038 C4.20966607 11.91944671 3.35457002 9.72545678 2.5 7.53125 C2.11692184 6.55325188 2.11692184 6.55325188 1.72610474 5.55549622 C0 1.1140875 0 1.1140875 0 0 Z " fill="#46A749" transform="translate(1763,1728)"/>
<path d="M0 0 C0.66 0 1.32 0 2 0 C5.63444571 27.4903287 6.30582624 55.17907781 6.30201519 82.86912 C6.30369395 86.91566804 6.31689493 90.9621834 6.32855225 95.00871277 C6.34717731 101.97680974 6.3590482 108.94488981 6.36609077 115.91300774 C6.37637291 125.98920673 6.39850382 136.06535471 6.42347669 146.14152677 C6.46380752 162.50278765 6.49638494 178.86405347 6.52319336 195.2253418 C6.52479066 196.19903973 6.52638796 197.17273766 6.52803367 198.17594159 C6.52963257 199.15096771 6.53123147 200.12599382 6.53287882 201.13056618 C6.55567869 215.02576886 6.58031597 228.92096666 6.60717773 242.81616211 C6.60907388 243.79804396 6.61097003 244.77992581 6.61292363 245.79156166 C6.64465449 262.13938317 6.68038019 278.48719451 6.71821922 294.83500296 C6.74125337 304.89683812 6.76020916 314.95866635 6.77388596 325.02051867 C6.78338451 331.88878781 6.79620889 338.75704519 6.81169481 345.62530344 C6.8204868 349.58922897 6.82757356 353.55313989 6.83033562 357.51707458 C6.83287496 361.13962521 6.83990766 364.76213737 6.85060786 368.38467283 C6.85511815 370.32518114 6.85466282 372.265699 6.85406977 374.20621246 C6.85831082 375.34633083 6.86255186 376.48644919 6.86692142 377.6611166 C6.86849532 378.65100596 6.87006922 379.64089532 6.87169081 380.66078132 C6.84579403 383.02288431 6.84579403 383.02288431 8 385 C8.07065617 387.04055005 8.08421976 389.08334257 8.0625 391.125 C8.05347656 392.22070312 8.04445313 393.31640625 8.03515625 394.4453125 C8.02355469 395.28835938 8.01195313 396.13140625 8 397 C4.78328832 393.78328832 5.24972622 389.80173047 4.89393616 385.40019226 C4.80974523 384.38279077 4.7255543 383.36538928 4.63881212 382.31715745 C3.63606499 368.86028055 3.69611321 355.37917464 3.69798481 341.89357102 C3.69632044 337.92557594 3.68314328 333.95761519 3.67144775 329.98963928 C3.65273259 323.13817798 3.64092061 316.28673411 3.63390923 309.43525124 C3.62365368 299.50784026 3.60153437 289.58048158 3.57652331 279.65309807 C3.53608119 263.511012 3.50355917 247.36892087 3.47680664 231.22680664 C3.47441069 229.78280329 3.47441069 229.78280329 3.47196633 228.30962815 C3.47036743 227.34579053 3.46876853 226.38195291 3.46712118 225.38890809 C3.4444255 211.71996107 3.41978189 198.05101938 3.39282227 184.38208008 C3.39092612 183.41969623 3.38902997 182.45731239 3.38707637 181.46576539 C3.35521083 165.37355658 3.3194574 149.28135767 3.28178078 133.18916148 C3.25886702 123.29540927 3.23986914 113.40166369 3.22611404 103.50789442 C3.2165268 96.72443311 3.20365898 89.94098318 3.18830519 83.15753249 C3.17961481 79.25625498 3.17247079 75.35499138 3.16966438 71.45370483 C3.21311814 42.45370892 3.21311814 42.45370892 0.9375 13.5625 C-0.1326275 4.44744232 -0.1326275 4.44744232 0 0 Z " fill="#70AF6E" transform="translate(3227,1472)"/>
<path d="M0 0 C39.6 0 79.2 0 120 0 C118 2 118 2 115.94228935 2.24609566 C115.08870905 2.24425207 114.23512875 2.24240849 113.35568237 2.24050903 C112.37689117 2.24325836 111.39809998 2.24600769 110.38964844 2.24884033 C109.31215332 2.24164978 108.2346582 2.23445923 107.12451172 2.22705078 C105.99280548 2.22734283 104.86109924 2.22763489 103.69509888 2.22793579 C99.9398848 2.22653812 96.18486708 2.21095626 92.4296875 2.1953125 C89.83179838 2.19158393 87.23390787 2.18873622 84.63601685 2.18673706 C78.4878341 2.17987089 72.33973287 2.16409462 66.19158089 2.14403808 C59.19288685 2.12170136 52.19418946 2.11069127 45.19546866 2.10064721 C30.79693472 2.07972896 16.39848438 2.04304381 2 2 C2 17.18 2 32.36 2 48 C44.24 47.67 86.48 47.34 130 47 C130 47.33 130 47.66 130 48 C123.62768133 49.14439082 117.37629042 49.13417708 110.91430664 49.11352539 C109.71359528 49.11367142 108.51288391 49.11381744 107.27578735 49.1139679 C104.00149561 49.11339275 100.72724722 49.10839536 97.45296407 49.10139394 C94.02434431 49.09512066 90.59572361 49.09455346 87.167099 49.09336853 C80.68266037 49.0902669 74.1982387 49.08206932 67.71380752 49.07201904 C60.32805652 49.06082155 52.94230467 49.0553383 45.55654728 49.05032361 C30.37102053 49.03988568 15.1855158 49.02155479 0 49 C0 32.83 0 16.66 0 0 Z " fill="#78B577" transform="translate(2830,2757)"/>
<path d="M0 0 C39.93 0 79.86 0 121 0 C121 16.17 121 32.34 121 49 C104.953302 49.02259168 88.90661761 49.04100524 72.8599081 49.05181217 C65.40879687 49.05696385 57.95769623 49.06398505 50.5065918 49.07543945 C44.01062976 49.08542076 37.5146754 49.09186163 31.0187059 49.09408849 C27.58059588 49.09538975 24.14250781 49.0984385 20.70440483 49.10573006 C16.86209584 49.11381242 13.01980815 49.11398892 9.17749023 49.11352539 C8.04316559 49.11712067 6.90884094 49.12071594 5.74014282 49.12442017 C0.3833857 49.11742691 -4.72399534 48.94949096 -10 48 C-10 47.67 -10 47.34 -10 47 C32.57 47.33 75.14 47.66 119 48 C119 32.82 119 17.64 119 2 C113.80588379 2.01571045 113.80588379 2.01571045 108.50683594 2.03173828 C97.07951588 2.0648439 85.65218921 2.08705784 74.22483444 2.10362434 C67.2948843 2.11393784 60.36497958 2.12799956 53.43505859 2.15087891 C46.75017928 2.17293873 40.06535695 2.18456143 33.38043976 2.18975449 C30.82710272 2.19345639 28.27376834 2.20068505 25.72045135 2.21146011 C22.15049098 2.22592939 18.58072705 2.22797983 15.01074219 2.22705078 C13.41931145 2.23783661 13.41931145 2.23783661 11.79573059 2.24884033 C10.82260422 2.246091 9.84947784 2.24334167 8.84686279 2.24050903 C8.00250042 2.24235262 7.15813805 2.24419621 6.28818893 2.24609566 C4 2 4 2 0 0 Z " fill="#79B477" transform="translate(1216,2757)"/>
<path d="M0 0 C12.54 0 25.08 0 38 0 C38.02254683 16.80224133 38.04097906 33.60446982 38.05181217 50.40672207 C38.05697518 58.20775836 38.06401797 66.00878461 38.07543945 73.80981445 C38.08538615 80.60676313 38.09185339 87.40370454 38.09408849 94.20066029 C38.09539563 97.80178131 38.09848164 101.40288152 38.10573006 105.0039959 C38.11374364 109.01756602 38.11399115 113.03109964 38.11352539 117.04467773 C38.11712067 118.24732773 38.12071594 119.44997772 38.12442017 120.68907166 C38.1230455 121.77587219 38.12167084 122.86267273 38.12025452 123.98240662 C38.12117631 124.93277518 38.1220981 125.88314375 38.12304783 126.86231136 C38 129 38 129 37 130 C33.87955026 130.13628008 30.77835543 130.21089314 27.65625 130.24609375 C25.6861947 130.27910559 23.71614272 130.31231568 21.74609375 130.34570312 C18.64863082 130.39257551 15.55117318 130.43683973 12.45361328 130.47680664 C-0.15963295 130.64753221 -12.50738318 131.19590924 -25 133 C-9.88272258 122.92181505 22.79956514 128 36 128 C36 86.42 36 44.84 36 2 C24.45 2 12.9 2 1 2 C0.67 1.34 0.34 0.68 0 0 Z " fill="#76B776" transform="translate(3200,2028)"/>
<path d="M0 0 C0 0.66 0 1.32 0 2 C-15.63038965 3.1164564 -31.32978764 3 -47 3 C-47 44.58 -47 86.16 -47 129 C-35.12 129 -23.24 129 -11 129 C-7.04 129.66 -3.08 130.32 1 131 C-3 132 -3 132 -16 131 C-26.89 130.67 -37.78 130.34 -49 130 C-49 87.43 -49 44.86 -49 1 C-8 0 -8 0 0 0 Z " fill="#77B576" transform="translate(978,2027)"/>
<path d="M0 0 C0.66 0.33 1.32 0.66 2 1 C1.55720703 1.4125 1.11441406 1.825 0.65820312 2.25 C-10.85146651 12.93850018 -10.85146651 12.93850018 -22 24 C-22.66 23.67 -23.32 23.34 -24 23 C-18.66650611 16.86401282 -13.24905427 11.19911195 -7 6 C-5.6653741 4.85567247 -4.33196897 3.70991905 -3 2.5625 C-2.01 1.716875 -1.02 0.87125 0 0 Z " fill="#E4F7E2" transform="translate(2957,2119)"/>
<path d="M0 0 C0.66 0.33 1.32 0.66 2 1 C0.54782324 2.50596108 -0.91192861 4.00462104 -2.375 5.5 C-3.18710938 6.3353125 -3.99921875 7.170625 -4.8359375 8.03125 C-7 10 -7 10 -9 10 C-9.25523437 10.58265625 -9.51046875 11.1653125 -9.7734375 11.765625 C-11.11741087 14.21388223 -12.61810296 15.81743248 -14.625 17.75 C-15.57246094 18.67039062 -15.57246094 18.67039062 -16.5390625 19.609375 C-17.02117188 20.06828125 -17.50328125 20.5271875 -18 21 C-18.66 20.67 -19.32 20.34 -20 20 C-13.76332984 12.76238278 -7.16527521 6.29472776 0 0 Z " fill="#63A964" transform="translate(3076,2156)"/>
<path d="M0 0 C0.66 0.33 1.32 0.66 2 1 C-0.24880553 3.41778053 -2.49925661 5.83402346 -4.75 8.25 C-5.38421875 8.93191406 -6.0184375 9.61382813 -6.671875 10.31640625 C-9.73066436 13.59823233 -12.79472018 16.85947331 -16 20 C-16.66 19.67 -17.32 19.34 -18 19 C-12.12628112 12.53147414 -6.24971273 6.11083023 0 0 Z " fill="#57A458" transform="translate(1141,1405)"/>
<path d="M0 0 C0.66 0.33 1.32 0.66 2 1 C-0.73767123 3.82473024 -3.4921069 6.63252092 -6.25 9.4375 C-7.02730469 10.23994141 -7.80460938 11.04238281 -8.60546875 11.86914062 C-9.73662109 13.01479492 -9.73662109 13.01479492 -10.890625 14.18359375 C-11.58188477 14.89056396 -12.27314453 15.59753418 -12.98535156 16.32592773 C-15.05471985 18.04546946 -16.3704323 18.60556484 -19 19 C-13.37095532 11.92348669 -6.6903009 6.04509384 0 0 Z " fill="#E1F5DF" transform="translate(1031,1281)"/>
<path d="M0 0 C-1.5255906 3.65141356 -3.72480909 5.90118112 -6.5625 8.625 C-9.69042054 11.51070681 -9.69042054 11.51070681 -12 15 C-12.66 15 -13.32 15 -14 15 C-12.57731065 10.51367848 -10.33752711 7.96196337 -7 4.6875 C-6.113125 3.80449219 -5.22625 2.92148438 -4.3125 2.01171875 C-2 0 -2 0 0 0 Z " fill="#59A55A" transform="translate(3261,2272)"/>
<path d="M0 0 C-1.61010527 4.07376031 -4.53822271 6.76507069 -7.625 9.75 C-8.140625 10.25660156 -8.65625 10.76320313 -9.1875 11.28515625 C-10.45383339 12.52803902 -11.7263144 13.76465276 -13 15 C-13.66 14.67 -14.32 14.34 -15 14 C-12.88370326 11.65864102 -10.75558371 9.32835941 -8.625 7 C-8.02171875 6.33226563 -7.4184375 5.66453125 -6.796875 4.9765625 C-6.21679688 4.34492188 -5.63671875 3.71328125 -5.0390625 3.0625 C-4.23782959 2.18271484 -4.23782959 2.18271484 -3.42041016 1.28515625 C-2 0 -2 0 0 0 Z " fill="#E4F7E2" transform="translate(3114,2188)"/>
<path d="M0 0 C0 0.66 0 1.32 0 2 C-1.7015625 2.2165625 -1.7015625 2.2165625 -3.4375 2.4375 C-6.80777201 2.61171478 -6.80777201 2.61171478 -8 4 C-13.0698552 4.93119789 -17.87118304 5.08997924 -23 5 C-23 4.67 -23 4.34 -23 4 C-19.91808296 3.32667007 -16.8342592 2.66251141 -13.75 2 C-12.87730469 1.80921875 -12.00460938 1.6184375 -11.10546875 1.421875 C-9.83896484 1.15117187 -9.83896484 1.15117187 -8.546875 0.875 C-7.77182617 0.70742187 -6.99677734 0.53984375 -6.19824219 0.3671875 C-4 0 -4 0 0 0 Z " fill="#6BAD6B" transform="translate(3036,2955)"/>
<path d="M0 0 C0.33 0 0.66 0 1 0 C2.83717315 7.41430591 3.23576736 14.37685526 3 22 C-1.01503968 17.98496032 -0.05613489 10.88488315 -0.0625 5.5 C-0.04661673 3.6666171 -0.02749868 1.83324547 0 0 Z " fill="#63AA63" transform="translate(3232,1847)"/>
<path d="M0 0 C0.33 0.99 0.66 1.98 1 3 C-0.98 4.98 -2.96 6.96 -5 9 C-5.99 8.67 -6.98 8.34 -8 8 C-5.36 5.36 -2.72 2.72 0 0 Z " fill="#60A860" transform="translate(1223,2052)"/>
<path d="M0 0 C0 0.66 0 1.32 0 2 C-3.45730521 4.44045073 -6.96678237 5.78065514 -11 7 C-4.36842105 0 -4.36842105 0 0 0 Z " fill="#5DA65D" transform="translate(3272,2265)"/>
<path d="M0 0 C0.33 0 0.66 0 1 0 C1.3152595 5.98993047 0.68219822 9.63560356 -2 15 C-3.53760842 11.92478317 -2.36599236 9.65324882 -1.5625 6.375 C-1.27503906 5.18648437 -0.98757812 3.99796875 -0.69140625 2.7734375 C-0.46324219 1.85820312 -0.23507813 0.94296875 0 0 Z " fill="#62A762" transform="translate(3220,2751)"/>
<path d="M0 0 C1.43655854 -0.08131463 2.8744483 -0.13933559 4.3125 -0.1875 C5.51326172 -0.23970703 5.51326172 -0.23970703 6.73828125 -0.29296875 C9.47851584 0.06198392 10.29171079 0.89366282 12 3 C10.56163249 2.88541307 9.12429034 2.75790884 7.6875 2.625 C6.88699219 2.55539063 6.08648438 2.48578125 5.26171875 2.4140625 C3 2 3 2 0 0 Z " fill="#71B271" transform="translate(1189,2801)"/>
<path d="M0 0 C0.33 0 0.66 0 1 0 C1.25 6.625 1.25 6.625 -1 10 C-1.66 10 -2.32 10 -3 10 C-2.01 6.7 -1.02 3.4 0 0 Z " fill="#65AB65" transform="translate(2242,2029)"/>
<path d="M0 0 C0.33 0.66 0.66 1.32 1 2 C-0.5039544 4.79305817 -2.24016054 7.36024081 -4 10 C-4.66 10 -5.32 10 -6 10 C-4.34832443 6.4213696 -2.21713508 3.25179812 0 0 Z " fill="#63AA63" transform="translate(1251,2018)"/>
<path d="M0 0 C0.33 0 0.66 0 1 0 C1.25 6.625 1.25 6.625 -1 10 C-1.66 10 -2.32 10 -3 10 C-2.01 6.7 -1.02 3.4 0 0 Z " fill="#63AB63" transform="translate(2286,1917)"/>
</svg>
